<?xml version="1.0" encoding="utf-8"?>
<!-- Generator: Adobe Illustrator 25.2.0, SVG Export Plug-In . SVG Version: 6.00 Build 0)  -->
<svg version="1.1" id="Layer_1" xmlns="http://www.w3.org/2000/svg" xmlns:xlink="http://www.w3.org/1999/xlink" x="0px" y="0px"
	 viewBox="0 0 500 500" style="enable-background:new 0 0 500 500;" xml:space="preserve">
<style type="text/css">
	.st0{fill:#EC7200;}
	.st1{fill:#939393;}
</style>
<path class="st0" d="M229.8,473.9c-2.4,0-4.6-0.8-6-2.4c-4.2-4.4-9.6-6-15.6-7.4c-11-2.6-24-6.1-36.5-12.4
	c-4.2-2.2-8.6-4.8-12.1-8.8c-5.2-5.7-6-12-2.1-18.1c0.4-0.6,0.5-0.9,0.6-1.1c-0.2-0.2-0.5-0.4-1.1-0.9c-4.1-2.8-9.3-7.7-5.9-17.7
	c4.4-13.1,1.7-26.8-1.8-39.6c-0.4-1.5-0.5-1.5-1.2-1.5c-0.7,0-0.7,0-1.3,1.3l-0.2,0.5c-2.3,4.7-4.5,9.6-6.3,13.5l-2.1,4.7l-2.5-2.4
	c-2.7-2.5-5.4-5-8-7.5c-8-7.5-16.4-15.3-24.6-22.9c-4.2-3.8-1.6-8.1-0.7-9.7c2.6-4.2,1.8-7.3-2.8-11.1c-3.2-2.7-6.1-5.5-8.6-8.4
	c-1.5-1.8-3.5-4.5-2.7-7.4c0.8-2.8,3.8-3.9,5.9-4.6c0.4-0.1,0.6-0.2,0.8-0.3c-0.1-0.2-0.2-0.5-0.4-0.8c-0.4-0.8-0.8-1.6-1.1-2.4
	c-0.4-0.9-0.7-1.7-1.2-2.3c-1.9-2.8-2.5-5.3-2-7.7c0.5-2.3,2.2-4.4,5-6c2.1-1.3,2.8-2.2,0.9-5.9c-4.3-8.1-5.3-17.1-6.2-25.8
	c-0.1-1.2-0.3-2.5-0.4-3.7c-0.2-2-0.6-4.1-1.1-6.2c-1.3-6.4-2.8-13.7,1.3-20.9c-1.2-15.7,4.9-29.3,10.8-42.4c2-4.4,4-9,5.7-13.6
	c1.1-2.8,1.1-4.6,0.3-7.1c-3-8.7-2-17.4-0.4-25.5c0.7-3.6,3.1-5.5,5.1-7.3l0.4-0.3c20.5-18,43.4-32.1,67-46c3.5-2.1,7-4.1,10.6-6.2
	c21.3-12.5,43.3-25.4,63.2-40.6c3.2-2.5,6.4-5.1,9.5-7.7c7.8-6.5,10.3-6.7,18.9-1.6c10.6,6.2,19.3,14.9,25.8,25.8
	c0.1,0.2,0.3,0.5,0.4,0.7c1.5,2.5,3.8,6.3,1,10.8c-0.3,0.5,0.7,1.9,1.3,2.9c0.5,0.7,1.1,1.4,1.8,2.1c2,2.1,4.3,4.7,4.3,8.8
	c0.3,0,0.7,0,0.9,0c3.6,0.2,7.2,0.3,10.8,0.3c3.9,0,5.6,1.6,6.3,2.9c0.7,1.3,1.1,3.4-0.8,6.4c-0.7,1.1-0.9,1.7-0.8,2
	c0.1,0.5,1.5,1.4,2.5,2l0.5,0.4c1.2,0.8,2.5,1.5,3.9,2.2c4.1,2.1,8.7,4.5,10.6,10.3c0.1,0,0.2,0,0.4,0l0.1,0
	c16.2-1.8,28,7.1,37.4,16c4.7,4.4,8.1,5.4,13.1,3.8c3-1,5.5-0.8,7.5,0.4c2.2,1.3,3.7,3.9,4.4,7.9c0.7,4.2-0.5,6.9-4,9.1
	c-1.3,0.8-2.6,1.5-3.9,2.2c-4.1,2.2-7.6,4-9.7,8.2c-0.9,1.9-2.6,3.1-4.8,3.5c-2.9,0.5-6.7-0.6-9-2.8c-5.2-4.8-11.6-5.7-18.3-6.6
	c-1.8-0.3-3.7-0.5-5.5-0.9c-2.8-0.5-5.7-0.7-8.6-0.9c-1.5-0.1-3.1-0.2-4.6-0.3c-5.7-0.5-10.7-0.6-15.1,3c-0.5,0.4-2.5,2.1-4.9,2.1
	c-6.4,0.1-9.4,4.4-12.9,9.5c-0.5,0.7-1,1.5-1.5,2.2c-8.8,12.3-18.3,24.3-26.7,34.5c2.9,1.3,5.4,2.8,5.7,5.4c0.3,2.8-2.1,4.9-4.5,6.6
	c-5,3.7-5.7,6.8-2.3,12c6.6,10.4,6.9,21.2,1.1,33.1c-5.5,11.4-5.5,22-0.2,32.4l1.7,3.4l-3.8,0.3c-4,0.3-7.3-0.7-10.3-1.6
	c-1.6-0.5-3.2-0.9-4.7-1.1c-1.3-0.2-2.6-0.4-3.9-0.7c-1.8-0.4-3.4-0.7-5.1-0.8c-3-0.3-3.9,0-4.1,0.1c-0.1,0.3-0.1,1.2,0.8,4
	c10,31.6,12.6,57.9,8.2,82.8c-0.2,1.2-0.4,2.3-0.6,3.5c-1.5,8.2-2.9,16-1,24.5c2.2,9.7-2,19.1-5.7,27.5l-0.3,0.7
	c-1.7,3.8-3.6,7.6-5.4,11.3c-4.4,8.8-8.5,17.1-10.5,26.6c-0.5,2.4-2.6,4.4-5.5,5.2C231.7,473.8,230.8,473.9,229.8,473.9z"/>
<path class="st0" d="M148.1,359.1c4.4,0,5.4,3.6,5.9,5.1c3.8,13.6,6.7,28.2,1.8,42.6c-2.1,6.2,0,9.2,4,11.9c3.7,2.6,4.2,5,1.9,8.8
	c-2.6,4.2-2.1,8,1.6,12.1c2.8,3.2,6.3,5.4,10.7,7.7c11.9,6.1,24.5,9.5,35.3,12c6.6,1.6,12.9,3.4,18,8.8c0.8,0.8,2.4,1,3.9,0.6
	c1-0.3,1.8-0.9,1.9-1.4c2.1-10,6.6-19,10.9-27.8c1.8-3.6,3.7-7.4,5.3-11.1l0.3-0.7c3.6-8,7.3-16.3,5.4-24.3
	c-2.1-9.5-0.6-17.8,0.9-26.5c0.2-1.2,0.4-2.3,0.6-3.5c4.2-24.1,1.7-49.6-8-80.4c-1.2-3.7-1.6-6.6,0.1-8.7c1.8-2.2,5.1-2.3,8.4-2
	c1.9,0.1,3.8,0.5,5.7,0.9c1.2,0.2,2.4,0.5,3.5,0.6c1.9,0.3,3.7,0.8,5.5,1.3c1.6,0.5,3.1,0.9,4.7,1.2c-4.2-10.5-3.5-21.6,1.9-33
	c5-10.4,4.8-19.4-0.9-28.3c-4.7-7.4-3.5-13.5,3.6-18.8c1.5-1,2.1-1.7,2.3-2c-0.3-0.3-1.2-0.9-3.2-1.7c-2.2-0.6-3.3-2-3.3-4.1v-0.9
	l0.6-0.7c8.7-10.6,18.8-23.1,28-36.1c0.5-0.7,1-1.4,1.5-2.1c3.7-5.4,7.9-11.5,17-11.6c0.3,0,1-0.3,1.7-0.9
	c5.9-4.9,12.5-4.7,18.8-4.2c1.5,0.1,2.9,0.2,4.4,0.3c3,0.2,6.1,0.4,9.2,0.9c1.7,0.3,3.6,0.6,5.3,0.8c7.2,1,14.7,2.1,21,7.9
	c1.2,1.1,3.3,1.8,4.8,1.6c0.8-0.1,1.1-0.5,1.2-0.8c2.8-5.6,7.6-8.2,11.8-10.4c1.2-0.7,2.4-1.3,3.5-2c1.8-1.2,2.1-1.9,1.7-4.1
	c-0.4-2.3-1.1-3.9-2-4.4c-0.7-0.4-1.9-0.4-3.4,0.1c-6.8,2.2-12,0.7-18.1-5c-8.5-8.1-19.2-16.2-33.4-14.6c-4.1,0.6-5.4-1.7-5.7-3.1
	c-1.2-4-4.4-5.7-8.2-7.6c-1.5-0.7-3-1.5-4.4-2.5l-0.5-0.3c-2-1.2-4.2-2.7-4.7-5.2c-0.4-1.7,0.1-3.6,1.5-5.7c0.4-0.6,0.5-1,0.5-1.2
	c-0.2-0.1-0.7-0.3-1.9-0.3c-3.7,0-7.4-0.1-11.1-0.3c-0.2,0-0.4,0-0.6,0c-1.2,0-3,0-4.2-1.4c-0.5-0.6-1-1.6-0.8-3.1
	c0.3-2.3-0.9-3.7-2.9-5.9c-0.8-0.8-1.5-1.7-2.2-2.6c-1.3-1.9-3.6-5.1-1.5-8.4c1.1-1.8,0.6-2.9-1.1-5.6c-0.2-0.3-0.3-0.5-0.5-0.8
	c-6-10.1-14.1-18.2-24-24c-6.9-4.1-7.1-3.9-13.2,1.2c-3.2,2.6-6.4,5.2-9.7,7.7c-20.2,15.4-42.3,28.4-63.7,41
	c-3.5,2.1-7,4.1-10.5,6.2c-23.4,13.9-46.1,27.8-66.3,45.5l-0.4,0.4c-1.9,1.6-3.1,2.7-3.5,4.5c-1.5,7.4-2.4,15.3,0.2,22.9
	c1.3,3.6,1.2,6.7-0.3,10.5c-1.8,4.7-3.8,9.3-5.9,13.8c-6,13.4-11.6,26-10.3,40.7l0.1,0.8l-0.4,0.7c-3.6,5.7-2.4,11.7-1.1,18
	c0.4,2.2,0.9,4.4,1.1,6.6c0.1,1.2,0.3,2.5,0.4,3.7c0.9,8.6,1.7,16.7,5.6,24c1.9,3.5,3.6,8.6-2.7,12.5c-1.6,0.9-2.5,1.9-2.7,2.8
	c-0.2,1,0.2,2.3,1.3,3.8c0.7,1,1.1,2.1,1.6,3.1c0.3,0.7,0.6,1.3,0.9,1.9c0.9,1.6,1.6,3.4,0.9,5.2c-0.8,1.9-2.8,2.7-4.2,3.1
	c-2.2,0.6-2.6,1.2-2.6,1.2l0,0c0,0,0,0.7,1.7,2.7c2.3,2.7,5,5.3,8,7.8c6.5,5.4,7.7,11.1,3.8,17.5c-1.3,2.2-1.1,2.7-0.2,3.5
	c8.3,7.6,16.6,15.4,24.7,23c1.8,1.7,3.7,3.4,5.5,5.2c1.7-3.6,3.6-7.9,5.6-12l0.2-0.4C142.9,361.8,144.2,359,148.1,359.1
	C148.1,359.1,148.1,359.1,148.1,359.1z"/>
<path class="st1" d="M315.6,82.2C315.6,82.2,315.6,82.2,315.6,82.2C315.6,82.2,315.6,82.2,315.6,82.2z"/>
</svg>
