<?xml version="1.0" encoding="utf-8"?>
<!-- Generator: Adobe Illustrator 25.2.0, SVG Export Plug-In . SVG Version: 6.00 Build 0)  -->
<svg version="1.1" id="Layer_1" xmlns="http://www.w3.org/2000/svg" xmlns:xlink="http://www.w3.org/1999/xlink" x="0px" y="0px"
	 viewBox="0 0 500 500" style="enable-background:new 0 0 500 500;" xml:space="preserve">
<style type="text/css">
	.st0{fill:#E44516;}
</style>
<g>
	<path class="st0" d="M461.3,438.4c-1.1,0.9-0.9,2.3-1.2,3.4c-6.2,18.9-29,25.3-44,12.3c-1.2-1.1-2.4-2.3-3.6-3.4
		C359.7,397.9,307,345.2,254.3,292.4c-2.6-2.6-3.9-2.7-6.6,0c-52.9,53.1-106,106.1-159,159.2c-8.7,8.7-18.8,11.6-30.3,7.5
		c-17.8-6.4-23.4-28.6-11.2-42.9c1.2-1.5,2.6-2.8,4-4.1c52.7-52.7,105.5-105.5,158.3-158.2c2.5-2.5,2.5-3.7,0-6.2
		C156.2,194.5,103.1,141.3,50,88.2c-14.1-14.1-11.8-35,4.6-44.3c3.6-2.1,7.7-2.7,11.6-3.8c1.1,0,2.2,0,3.3,0
		c10,1.2,16.9,7.3,23.7,14.2c51.4,51.6,103,103,154.4,154.6c2.8,2.8,4.1,2.8,6.9,0c51.4-51.6,103-103,154.4-154.6
		c6.8-6.8,13.7-13,23.7-14.2c1.1,0,2.2,0,3.3,0c5.3,1.2,10.5,2.6,14.9,6.1c5.6,4.4,8.5,10.4,10.5,16.9c0,3,0,6,0,9
		c-2,8.3-7.4,14.3-13.3,20.2c-51.8,51.7-103.5,103.5-155.4,155.2c-2.7,2.7-2.5,4,0.1,6.5c51.9,51.8,103.7,103.7,155.7,155.5
		c5.8,5.8,11,11.8,12.9,20C461.3,432.4,461.3,435.4,461.3,438.4z"/>
</g>
</svg>
