<?xml version="1.0" encoding="utf-8"?>
<!-- Generator: Adobe Illustrator 19.0.0, SVG Export Plug-In . SVG Version: 6.00 Build 0)  -->
<svg version="1.1" id="Layer_1" xmlns="http://www.w3.org/2000/svg" xmlns:xlink="http://www.w3.org/1999/xlink" x="0px" y="0px"
	 viewBox="0 0 500 500" style="enable-background:new 0 0 500 500;" xml:space="preserve">
<style type="text/css">
	.st0{fill:#F58333;}
</style>
<g id="XMLID_1_">
	<path id="XMLID_45_" d="M107.9,316.9c-0.1-9.1-4.2-16.1-11.7-21.1c-2.5-1.7-0.1-2.9,0.7-4c13.7-18.7,27.5-37.4,41.3-56.1
		c5.3-7.2,10.8-14.4,16-21.8c1.6-2.3,2.6-3.1,5-0.8c3.9,3.6,8.9,4.5,14.1,4.5c8,0,16,0,23.4,0c-4.2,4.7-8.3,9.6-12.8,14.1
		c-6,6.1-8.1,13.1-5.6,21.2c1.8,6,6,10.1,11.7,12.5c16.8,7.2,33.6,7.1,50.3-0.4c2.7-1.2,5.3-2.6,7.9-4c8.2-4.5,15.8-3.7,23.1,2.2
		c22.2,17.8,44.4,35.5,66.5,53.3c8.6,6.9,18.1,12,29.1,13.4c4.2,0.5,4.6,2.9,4.4,6c-0.4,5.9-3,10.5-8.5,13.2
		c-5.7,2.7-11.3,2.4-16.4-1.3c-8-5.7-15.9-11.7-23.8-17.5c-9.7-7.2-19.5-14.4-29.2-21.6c-1.9-1.4-3.9-2.9-6.5-2.4
		c-2.7,0.5-4.6,2.1-5.3,4.8c-0.8,3.2,0.6,5.5,3,7.3c8.3,6.2,16.7,12.4,25.1,18.6c7.7,5.7,15.4,11.4,23,17.1
		c8.4,6.3,10.3,16.7,4.6,24.5c-5.8,7.8-16.1,9.2-24.7,3c-14.4-10.3-28.8-20.6-43.2-30.9c-0.9-0.7-1.8-1.3-2.8-1.9
		c-3.6-2.2-7.2-1.6-9.3,1.5c-2.1,3.1-1.5,6.8,1.9,9.2c7.4,5.4,14.8,10.7,22.3,16c7.2,5.2,14.4,10.3,21.6,15.5
		c7.3,5.2,9,13.6,4.1,20.2c-4.8,6.6-13.5,7.7-20.5,2.3c-13.6-10.4-27.1-21.1-40.7-31.6c-0.9-0.7-1.8-1.4-2.7-2.1
		c-3.6-2.6-7.4-2.2-9.7,0.8c-2.4,3.1-1.7,6.6,1.8,9.6c3.6,2.9,7.3,5.7,11,8.6c9.2,7.2,18.5,14.3,27.6,21.6c6.2,5,7.6,13.6,3.6,20.2
		c-3.9,6.4-12.1,9-19.2,6.2c-2.6-1-3.6-1.9-2-5.2c9.2-19.3-4.9-40.5-26.4-39.9c-2.2,0.1-2.7-0.4-3.1-2.5
		c-2.3-15.6-11.7-24.2-27.3-25.1c-2.3-0.1-2.7-0.8-2.8-2.9c-0.8-19.1-13.6-31-32.9-30.4c-1.6,0-2.5,0.1-2.6-2
		c-0.6-13-6.8-22.6-18.7-27.7c-12.1-5.2-23.4-2.9-33.4,5.7C108.9,316.7,108.6,316.7,107.9,316.9z"/>
	<path id="XMLID_44_" d="M377.1,317.6c-11.9-0.1-21.6-3.6-30.1-10.4c-22.3-17.9-44.6-35.6-66.8-53.6c-12.3-10-25.3-11.5-39.1-3.7
		c-14,7.9-28.4,10.4-43.7,4.5c-8.5-3.3-9.5-8.4-2.9-14.8c9.8-9.4,19.9-18.7,29.5-28.4c8.7-8.8,18.9-12,31-10.1
		c23.3,3.7,46.7,7,70,10.5c8.8,1.3,16.6-1.2,24.1-5.7c4.7-2.8,4.8-2.7,6.8,2.2c13.9,34.2,27.7,68.5,41.6,102.7
		c1.2,3,1.3,4.3-2.5,4.6C388.7,316,382.5,317.5,377.1,317.6z"/>
	<path id="XMLID_41_" class="st0" d="M249.8,43.7c32-0.1,58.1,25.9,58.1,57.9c0.1,31.9-26.1,58.1-58,58.1
		c-31.9,0-58.1-26.1-58.2-57.9C191.8,69.8,217.8,43.7,249.8,43.7z M280.5,85.2c0.1-3.6-1.2-5.6-3.7-6.8c-3.2-1.5-5.7-0.3-8,1.9
		c-9,9-18,17.9-26.8,26.9c-1.8,1.8-2.9,2-4.7,0c-2.1-2.4-4.5-4.7-6.9-6.9c-3.2-2.9-6.8-2.9-9.4-0.2c-2.6,2.6-2.5,6.5,0.3,9.4
		c4.3,4.4,8.7,8.8,13.1,13.1c3.5,3.3,6.9,3.4,10.4,0c11.1-11,22.1-22.1,33.2-33.1C279.5,88.2,280.6,86.6,280.5,85.2z"/>
	<path id="XMLID_40_" d="M459.3,296.4c0.2,2.3-1,3.2-2.5,3.9c-12.7,5.6-25.5,11.2-38.2,16.8c-3.6,1.6-4.7-0.6-5.8-3.3
		c-8-19.8-16-39.6-24.1-59.4c-8.4-20.8-16.9-41.7-25.3-62.5c-2.1-5.1-1.9-5.6,3.2-7.9c11.8-5.3,23.6-10.4,35.4-15.8
		c3.5-1.6,5.3-1,6.7,2.7C425.3,212,441.9,253,458.5,294C458.9,294.9,459.2,295.9,459.3,296.4z"/>
	<path id="XMLID_39_" d="M151.7,194.2c-0.1,1.3-0.9,2.2-1.7,3.3c-24,32.4-47.9,64.9-71.9,97.3c-3.4,4.6-3.9,4.6-8.3,1.2
		c-8.8-7-17.6-14-26.5-20.9c-3.1-2.4-3.6-4.3-1.2-7.6c24.1-32.5,48.1-65.1,72-97.7c2.1-2.9,4-3.4,6.9-1.1c9.4,7.6,19,15,28.5,22.5
		C150.6,191.9,151.5,192.7,151.7,194.2z"/>
	<path id="XMLID_38_" d="M107.4,386c-6.4-0.4-11.8-3.3-15.1-9.3c-3.4-6.1-3.7-12.7,0.4-18.4c7.8-10.8,16-21.4,24.5-31.6
		c5.8-6.9,16.5-7.3,23.7-1.8c7.2,5.5,9.7,15.8,4.7,23.4c-7.7,11.4-16.3,22.1-25.3,32.6C117.2,384.7,112.7,385.9,107.4,386z"/>
	<path id="XMLID_37_" d="M128.2,398.3c-0.2-3.5,1.3-7,3.7-10c7.2-9.3,14.3-18.7,21.7-28c6.3-7.9,15.9-9,23.9-2.9
		c7.4,5.7,8.7,15.9,2.7,23.6c-7.4,9.5-15,18.9-22.7,28.2c-4.7,5.7-12.1,7.4-18.7,4.9C132.3,411.6,128.2,405.6,128.2,398.3z"/>
	<path id="XMLID_36_" d="M213.7,401.5c0.1,3.3-1.3,6.4-3.3,9.1c-4.9,6.7-9.8,13.4-14.9,20c-5.4,7-14,8.3-20.5,3.3
		c-7.4-5.7-8.6-14.2-2.9-21.5c5.5-7,11-13.9,16.7-20.7c4.1-4.8,10.5-6.1,16.1-3.8C210.4,390.2,213.7,395.3,213.7,401.5z"/>
	<path id="XMLID_35_" d="M231.3,414.6c11,0,18.2,11.5,13.1,21.2c-2.8,5.3-6.2,10.4-9.9,15.2c-5,6.4-13.8,7-20.8,1.9
		c-6.4-4.7-8.2-13.2-3.7-19.8c3.4-5,7.2-9.7,11-14.4C223.7,415.5,227.4,414.6,231.3,414.6z"/>
</g>
</svg>
