<?xml version="1.0" encoding="utf-8"?>
<!-- Generator: Adobe Illustrator 25.2.0, SVG Export Plug-In . SVG Version: 6.00 Build 0)  -->
<svg version="1.1" id="Layer_1" xmlns="http://www.w3.org/2000/svg" xmlns:xlink="http://www.w3.org/1999/xlink" x="0px" y="0px"
	 viewBox="0 0 500 500" style="enable-background:new 0 0 500 500;" xml:space="preserve">
<style type="text/css">
	.st0{opacity:0.86;fill:#EC7200;}
	.st1{fill:#EC7200;}
	.st2{fill:#3F3F3F;}
</style>
<polygon class="st0" points="73.6,201.3 36.9,357 42.8,370 82,381.2 94.8,370.6 129.6,225 121.3,206.6 82,198.2 "/>
<circle class="st0" cx="252.9" cy="107.7" r="71.4"/>
<path class="st1" d="M165.2,295l62.1-69.7c0,0,30.8-27.3,73.3,0l36.1,24.7h8.8l28.8-10.3v-15.2l5.2-14.4l34.9-11.9l14.4,8.4
	l36.9,146.9l-7.5,15.2l-35,12.5l-11.2-7.7l-14.3-7.2l-25.8,14.9l-103.8-94.6l-15.2,3.1l-30,15.7l-27.2,8.8l-20.4-4.8l-10-11.2"/>
<path class="st2" d="M304.3,446.7c-7.9,23.8-31.9,29.5-49.4,12c-3.3-3.3-6.6-6.8-10.2-10.6c-0.6,1.5-1,2.2-1.2,3
	c-7.2,20.5-31.2,26.3-46.8,11.1c-18.8-18.4-37.6-36.8-56.1-55.5c-12.8-12.8-25.2-26-37.9-39c-0.3,0.3-0.7,0.7-1,1
	c-0.2,0.2-0.6,0.3-0.7,0.5c-6,14.3-15.4,19.1-30.5,15.6c-7.4-1.7-14.8-3.3-22.1-5.1c-13.2-3.2-20.6-14.7-17.6-28
	c10.5-46.5,21.1-92.9,31.9-139.3c3.2-13.8,14.9-20.8,28.7-17.7c8.1,1.8,16.2,3.7,24.3,5.6c9.6,2.3,15.6,8.3,17.7,17.9
	c0.6,2.7,1.7,3.2,4.1,3.2c27.5-0.1,55-0.1,82.5,0c2.7,0,4.4-1.2,6.2-2.9c8-7.5,17.1-12.6,28.2-14.1c9.3-1.3,18,0.8,26.4,4.5
	c15.3,6.7,29.1,16,43.6,24.1c4.7,2.6,9.2,5.4,14.5,6.7c10.4,2.5,19.1-2.5,28.1-6.4c1.7-0.7,1.1-2.2,0.8-3.5
	c-2.9-16.5,3.9-26.7,20.1-30.2c7-1.5,13.9-3.1,20.8-4.7c14.7-3.3,26.1,3.7,29.5,18.3c10,43.2,19.8,86.5,29.7,129.7
	c0.7,3,1.4,6.1,2,9.1c2.6,12.8-4.6,24.4-17.2,27.5c-8.4,2.1-16.8,3.8-25.2,5.7c-9.4,2.1-17.3-0.5-23.6-7.9c-1.3-1.6-2.2-2.3-4.3-1.3
	c-5.6,2.7-11.3,5.2-17.1,7.6c-2.2,0.9-2.5,2.1-2,4.1c3.9,15.6-7.9,33-25.4,33.8c-2.4,0.1-2.5,1.4-2.4,3.2c0.3,3.9-0.1,7.7-1.4,11.4
	c-6.2,18.1-28.2,24.9-43.4,13.3C307,448.7,305.8,447.8,304.3,446.7z M210.7,234.3c-1.5-0.2-2.4-0.4-3.2-0.4
	c-24.1,0-48.2,0.1-72.2-0.1c-3.4,0-3.8,1.9-4.3,4.3c-8.5,37.2-17,74.4-25.5,111.5c-0.6,2.8-0.2,4.6,1.9,6.7
	c32.5,32,64.9,64.1,97.4,96.2c7.3,7.2,16.9,7.6,23.3,0.9c6.4-6.6,5.8-15.8-1.3-23c-7.5-7.6-15.1-15.1-22.7-22.7
	c-3.4-3.4-3.8-7.1-1.2-9.8c2.9-3,6.3-2.6,10.1,1.1c1.3,1.2,2.5,2.5,3.8,3.8c16,16,32,31.9,47.9,47.9c4.2,4.2,8.9,6.5,14.8,5.3
	c6-1.2,10.2-4.7,12-10.6c1.9-6.1,0.4-11.5-4.1-15.9c-15.3-15.4-30.7-30.7-46-46.1c-1-1.1-2.2-2-3.1-3.2c-2.2-2.9-2.1-5.9,0.5-8.4
	c2.5-2.4,5.3-2.4,8.1-0.3c1.1,0.8,2,1.8,2.9,2.8c17.6,17.6,35.1,35.1,52.7,52.7c3.9,3.9,7.7,7.9,11.7,11.6c9,8.2,23,4.1,25.8-7.5
	c1.5-6.3-0.7-11.6-5.3-16.1c-20.2-20.1-40.4-40.3-60.6-60.5c-1.2-1.2-2.4-2.3-3.3-3.6c-1.8-2.7-1.5-5.4,0.8-7.7
	c2.3-2.3,5-2.5,7.7-0.7c1.3,0.9,2.5,2.1,3.6,3.3c16.8,16.8,33.6,33.6,50.5,50.4c3.2,3.2,6.2,6.4,9.5,9.4c4.6,4.1,10.1,4.9,15.8,2.8
	c5.6-2.1,8.9-6.4,9.8-12.3c0.9-5.9-1.7-10.6-5.8-14.7c-25.5-25.4-50.9-50.9-76.3-76.3c-13.8-13.8-27.4-15.1-43.5-4.1
	c-9.1,6.2-18.4,12-28.8,15.9c-21.9,8.4-42,3-56.7-15.1c-3-3.7-2.9-7,0.7-10.1c14.8-12.8,27.3-27.7,39.9-42.6
	C202.3,244.3,206.3,239.6,210.7,234.3z M260.1,216.6c-8.2,0.3-15.6,3-22,8.3c-5.4,4.5-10.3,9.4-15,14.6
	c-16.9,18.8-32.1,39-50.7,56.3c-1.6,1.5-1.1,2.3,0.2,3.5c7.7,6.9,16.5,10.4,27,8.7c13.7-2.3,25.1-9.7,36.3-17.3
	c21.4-14.3,41.6-12.4,59.9,5.9c24.9,24.9,49.9,49.8,74.7,74.8c2.2,2.2,4,2.8,6.8,1.4c5.3-2.6,10.7-5.2,16.3-7.2
	c4.1-1.5,4.7-3.4,3.7-7.5c-8.3-35.5-16.4-71.1-24.6-106.7c-1.4-6.1-1.5-6.3-6.9-3.6C350,255.3,335,254,320,245
	c-13.2-8-26.4-16-40.3-22.9C273.6,219.1,267.2,216.8,260.1,216.6z M121.3,224.6c0.3-6.8-2.7-10.8-8.8-12.3
	c-7.9-1.9-15.9-3.8-23.9-5.5c-7.3-1.6-12.2,1.6-13.9,8.8c-10.5,45.7-20.9,91.4-31.4,137.1c-1.9,8.5,1,13.1,9.3,15.1
	c6.9,1.6,13.9,3.2,20.8,4.7c9.9,2.2,14.1-0.5,16.4-10.3c8.2-36,16.5-72,24.8-108C116.9,244,119.2,233.8,121.3,224.6z M458.2,356.3
	c-0.1-0.5-0.3-1.7-0.6-2.8c-10.5-45.7-20.9-91.4-31.4-137.1c-1.9-8.4-6.5-11.2-15.1-9.2c-6.9,1.6-13.9,3.2-20.8,4.8
	c-9.6,2.2-12.3,6.4-10.1,16.1c5.2,22.8,10.4,45.7,15.6,68.5c5.1,22.3,10.2,44.5,15.3,66.8c1.7,7.5,6.3,11.2,12.8,9.9
	c8.9-1.8,17.7-3.9,26.4-6.1C455.3,365.9,458.2,361.8,458.2,356.3z"/>
<path class="st2" d="M175.2,107.8c-0.1-42.7,34.5-77.6,77.2-77.7c43.1-0.1,78.2,34.9,78.1,77.8c-0.1,42.6-34.9,77.4-77.5,77.5
	C210,185.4,175.3,150.8,175.2,107.8z M187.7,107.7c0,36.1,29.1,65.2,65.2,65.1c35.8,0,65-29.1,65.1-64.9
	c0.1-35.9-29.2-65.3-65.1-65.4C216.9,42.5,187.7,71.6,187.7,107.7z"/>
<path class="st2" d="M265.7,126.4c0-6.2-4-10.5-9.7-11.7c-3.6-0.7-7.4-0.5-11-1.6c-10-3.1-17-11.4-17.6-21.3
	c-0.5-9.4,5.6-18.6,15.4-22.3c2.8-1.1,4-2.1,3.8-5.3c-0.3-4.4,2.4-7.2,6-7.3c3.4-0.1,6.3,2.5,6.2,6.7c-0.1,3.9,1.6,5.4,5,6.5
	c4.1,1.3,7.8,3.7,10.6,7.1c2.6,3.2,2.5,6.8-0.4,9.1c-3,2.4-6,2-8.7-0.7c-4.4-4.3-9.6-6.5-15.7-5.2c-5.8,1.3-9.7,5.9-9.5,10.8
	c0.2,5.1,4.7,9.4,10.7,10.2c2.2,0.3,4.4,0.4,6.6,0.7c10.6,1.5,19.5,10,20.8,19.7c1.4,10.6-4.5,20.5-15.1,24.6
	c-2.8,1.1-3.9,2.3-3.7,5.3c0.1,4-2.7,6.8-6.2,6.6c-3.8-0.3-6.2-2.6-6-6.3c0.2-3.4-1.4-4.5-4.2-5.5c-4.1-1.4-7.5-4.3-10.4-7.4
	c-2.3-2.5-2.4-5.5-0.3-8.1c2.3-2.8,5.3-3,8.4-1.1c1.7,1.1,3.2,2.7,4.9,3.9c4.7,3.1,9.5,2.9,14.4,0.5
	C263.3,132.5,265.5,129.5,265.7,126.4z"/>
</svg>
