<?xml version="1.0" encoding="utf-8"?>
<!-- Generator: Adobe Illustrator 25.2.0, SVG Export Plug-In . SVG Version: 6.00 Build 0)  -->
<svg version="1.1" id="Layer_1" xmlns="http://www.w3.org/2000/svg" xmlns:xlink="http://www.w3.org/1999/xlink" x="0px" y="0px"
	 viewBox="0 0 500 500" style="enable-background:new 0 0 500 500;" xml:space="preserve">
<style type="text/css">
	.st0{fill:#EE6200;}
</style>
<g>
	<path class="st0" d="M250.5,463.4c-63.1,0-126.1,0-189.2,0c-8.4,0-10.8-2.4-10.8-10.8c0-78.7,0-157.5-0.1-236.2
		c0-5.7,1.8-9.7,6.2-13.4c21.8-18.4,43.4-37.1,65.1-55.7c2.2-1.9,3.2-3.8,3.2-6.8c-0.2-15.2-0.1-30.5-0.1-45.7c0-7.9,3.1-11,11-11
		c18.6,0,37.3-0.1,55.9,0c3,0,5.3-0.8,7.6-2.8c14.7-12.7,29.5-25.2,44.2-37.8c6-5.2,10-5.2,16-0.1c14.6,12.5,29.3,24.9,43.9,37.5
		c2.6,2.3,5.3,3.2,8.8,3.2c18.1-0.2,36.1-0.1,54.2-0.1c9.2,0,12,2.8,12,11.8c0,14.9,0.1,29.9-0.1,44.8c0,3.2,0.9,5.4,3.4,7.6
		c21.3,18.6,42.4,37.4,63.7,56c3.9,3.4,5.5,7.2,5.5,12.4c-0.1,78.7-0.1,157.5-0.1,236.2c0,8.4-2.4,10.8-10.8,10.8
		C376.9,463.4,313.7,463.4,250.5,463.4z M250.6,101.9c-34.8,0-69.6,0-104.4-0.1c-3.1,0-4.3,0.5-4.3,4c0.1,52.8,0.1,105.7,0,158.5
		c0,2.5,0.7,4.1,2.6,5.6c34.3,27.5,68.5,55.1,102.6,82.8c2.5,2,3.9,1.9,6.3,0c34.1-27.8,68.2-55.5,102.4-83.1c2.1-1.7,2.8-3.4,2.8-6
		c-0.1-52.4-0.1-104.8,0-157.2c0-3.6-0.8-4.7-4.6-4.7C319.6,101.9,285.1,101.9,250.6,101.9z M416.3,445c-0.7-0.9-0.9-1.4-1.3-1.7
		c-37.9-34-75.8-67.9-113.7-102c-2.2-2-3.4-1.1-5.2,0.3c-12.7,10.4-25.5,20.7-38.3,31c-5.5,4.4-9.1,4.3-14.6-0.1
		c-12.7-10.2-25.4-20.4-37.9-30.8c-2.4-2-3.9-2-6.2,0.2c-37.4,33.4-74.9,66.7-112.4,100.1c-0.9,0.8-2.4,1.3-2.3,3
		C194.9,445,305.4,445,416.3,445z M68.5,432.9c1.8-0.2,2.4-1.3,3.3-2c37.5-33.5,75-67,112.6-100.4c2.8-2.5,1.7-3.4-0.5-5.1
		c-35.9-29-71.7-58.2-107.5-87.2c-2.5-2-4.9-4-8-6.4C68.5,299.3,68.5,365.9,68.5,432.9z M431.9,433.5c0-67.7,0-134.4,0-201.4
		c-0.8,0.5-1.2,0.6-1.5,0.9C392.3,264,354.2,295,316,325.8c-2.5,2-1.6,2.9,0.3,4.5c32.3,28.7,64.5,57.5,96.7,86.2
		C419.1,422.1,425.2,427.6,431.9,433.5z M377.1,169.1c0,28.2,0,55.5,0,83.6c16.3-13.2,32-26,47.8-38.6c1.8-1.4,1.2-2.2-0.1-3.4
		c-3.4-2.9-6.7-5.8-10-8.7C402.3,191.1,390,180.3,377.1,169.1z M123.1,169.1C106.3,183.8,90,198,73.4,212.4
		c16.6,13.4,32.9,26.6,49.7,40.2C123.1,224.4,123.1,197.1,123.1,169.1z M223.4,83.4c18.5,0,35.6,0,53.8,0c-9-7.8-17.2-15-25.4-22.1
		c-0.9-0.8-1.7-1.1-2.7-0.2C240.8,68.3,232.5,75.6,223.4,83.4z"/>
	<path class="st0" d="M250.2,152.4c-22.9,0-45.8,0-68.7,0c-1.9,0-3.8,0.1-5.7-0.7c-4-1.7-6.1-4.8-5.8-9c0.3-4.2,2.6-7.2,6.9-8.1
		c1.7-0.4,3.5-0.4,5.3-0.4c45.4,0,90.8,0,136.2,0c1.5,0,3,0,4.4,0.2c4.8,0.7,8.1,4.5,8,9.1c-0.1,4.8-3.7,8.5-8.7,8.9
		c-1.3,0.1-2.7,0-4,0C295.4,152.4,272.8,152.4,250.2,152.4z"/>
	<path class="st0" d="M250.3,230.6c22.9,0,45.9,0,68.8,0c2.1,0,4.1-0.1,6.1,0.8c3.7,1.7,6,5.4,5.4,9.3c-0.6,4.2-3,7-7.3,7.8
		c-1.7,0.3-3.5,0.3-5.3,0.3c-45.1,0-90.3,0-135.4,0c-8.3,0-12.7-3.1-12.8-9c-0.1-6,4.4-9.2,13-9.2
		C205.3,230.6,227.8,230.6,250.3,230.6z"/>
	<path class="st0" d="M250.5,182.5c22.8,0,45.6,0,68.4,0c2.4,0,4.8-0.2,6.9,1c3.6,2.1,5.3,5.1,4.7,9.2c-0.6,4.3-3.3,6.9-7.5,7.7
		c-1.6,0.3-3.2,0.2-4.9,0.2c-45.3,0-90.6,0-135.9,0c-0.6,0-1.2,0-1.8,0c-6.6-0.1-10.8-3.7-10.7-9.2c0.1-5.3,4.2-8.9,10.6-8.9
		C203.8,182.4,227.2,182.5,250.5,182.5z"/>
</g>
</svg>
