<?xml version="1.0" encoding="utf-8"?>
<!-- Generator: Adobe Illustrator 19.0.0, SVG Export Plug-In . SVG Version: 6.00 Build 0)  -->
<svg version="1.1" id="Layer_1" xmlns="http://www.w3.org/2000/svg" xmlns:xlink="http://www.w3.org/1999/xlink" x="0px" y="0px"
	 viewBox="0 0 500 500" style="enable-background:new 0 0 500 500;" xml:space="preserve">
<style type="text/css">
	.st0{fill:#F58333;}
</style>
<g id="XMLID_2_">
	<path id="XMLID_18_" d="M42.3,263.8c0-8.7,0-17.4,0-26.1c1.1-7.6,1.9-15.3,3.2-22.9C60,130.4,126.2,62.7,210.1,46.3
		c9.5-1.8,19-2.6,28.5-4c8.4,0,16.8,0,25.2,0c1.1,0.7,2.3,0.6,3.5,0.7c16.6,1.2,32.8,4.4,48.5,9.7C410.7,84.3,469,175.5,457.7,275.4
		c-6,53.2-29.4,98.2-70.3,132.6c-60.2,50.7-129.1,65.2-203.6,39.6c-76.4-26.2-121.9-81.4-138.1-160.5
		C44,279.5,43.4,271.6,42.3,263.8z M189.8,194.4c0,19.7,0,39.3,0,59c0,6-1.1,7.2-7,7.2c-4.2,0-8.4,0.1-12.6,0
		c-6.6-0.1-11.8,2.3-14.5,8.5c-2.6,6-1.1,11.3,3.2,16.1c27,30.2,54,60.5,81,90.8c6.3,7,15.3,6.9,21.7,0c3.6-3.9,7.1-7.9,10.6-11.8
		c23.6-26.4,47.1-52.9,70.7-79.3c4.2-4.7,5.5-10,3-15.8c-2.6-6-7.6-8.5-14-8.5c-4.2,0-8.4,0-12.6,0c-6.5,0-7.4-1-7.4-7.6
		c0-38.8,0-77.6,0-116.4c0-10.6-5.5-16.1-16-16.1c-30,0-60,0-90,0c-10.5,0-16,5.5-16.1,16.1C189.8,155.8,189.8,175.1,189.8,194.4z"
		/>
	<path id="XMLID_17_" class="st0" d="M269.7,216.4c0.1,3.7-1,5.8-4.3,6c-3.4,0.2-4.6-2-4.9-5.2c-0.4-4.3-2.7-7.4-7-8.6
		c-3.8-1-7.3-0.2-10,2.9c-2.6,3-3.2,6.5-1.5,10.2c1.4,3.2,3.9,5.1,7.4,5.6c2.3,0.3,4.6,0.4,6.8,1.1c7.4,2.1,12.8,8.8,13.3,16.3
		c0.6,8.5-3.4,15.7-11,19.1c-2.4,1-3.3,2.2-3.1,4.7c0.3,3.3-0.7,6.2-4.7,6.2c-3.9,0-4.9-3-4.6-6.2c0.2-2.6-0.9-3.7-3.2-4.7
		c-6.7-3-10.4-8.4-11-15.8c-0.3-3.1,0.7-5.6,4.1-5.9c3.3-0.3,4.7,1.8,5.1,5c0.7,5.5,4.2,8.9,9.1,9.3c4.4,0.3,8.4-2.6,9.8-7
		c1.7-5.6-2.1-11.4-8-12.3c-1.7-0.2-3.5-0.3-5.2-0.7c-8-1.8-13.9-8.2-14.8-15.9c-1-8.5,3-16.3,10.6-19.7c2.7-1.2,3.7-2.5,3.5-5.4
		c-0.2-3.2,1-5.8,4.8-5.7c3.5,0.1,4.8,2.6,4.5,5.6c-0.3,3.1,1,4.4,3.7,5.6C265.6,203.8,269.7,210.5,269.7,216.4z"/>
</g>
</svg>
