<?xml version="1.0" encoding="utf-8"?>
<!-- Generator: Adobe Illustrator 25.2.0, SVG Export Plug-In . SVG Version: 6.00 Build 0)  -->
<svg version="1.1" id="Layer_1" xmlns="http://www.w3.org/2000/svg" xmlns:xlink="http://www.w3.org/1999/xlink" x="0px" y="0px"
	 viewBox="0 0 633.2 63" style="enable-background:new 0 0 633.2 63;" xml:space="preserve">
<style type="text/css">
	.st0{fill:#0099DA;}
</style>
<g>
	<g>
		<path d="M33.8,21.1c0-3.2-1.8-5-4.7-5c-2.9,0-4.7,1.8-4.7,5v13.3h-7.5V21.1c0-3.2-1.8-5-4.7-5c-2.9,0-4.7,1.8-4.7,5v13.3H0V9.8
			h7.5v3.1c1.5-2,4-3.3,7.2-3.3c3.7,0,6.7,1.6,8.4,4.6c1.6-2.6,4.7-4.6,8.3-4.6c6.1,0,10,3.9,10,10.5v14.3h-7.5V21.1H33.8z"/>
		<path d="M57.7,34.7c-7.2,0-12.7-4.8-12.7-12.6S50.6,9.5,57.8,9.5s12.8,4.8,12.8,12.6S65,34.7,57.7,34.7z M57.7,28.2
			c2.7,0,5.2-2,5.2-6.1c0-4.2-2.5-6.1-5.1-6.1c-2.7,0-5.1,1.9-5.1,6.1C52.7,26.2,55,28.2,57.7,28.2z"/>
		<path d="M75.8,16.1h-3V9.9h3v-6h7.5v6h4.9v6.2h-4.9V26c0,1.5,0.6,2.1,2.3,2.1h2.7v6.4h-3.8c-5.1,0-8.7-2.2-8.7-8.5V16.1z"/>
		<path d="M103.6,34.7c-7.2,0-12.7-4.8-12.7-12.6s5.6-12.6,12.8-12.6c7.2,0,12.8,4.8,12.8,12.6S110.8,34.7,103.6,34.7z M103.6,28.2
			c2.7,0,5.2-2,5.2-6.1c0-4.2-2.5-6.1-5.1-6.1c-2.7,0-5.1,1.9-5.1,6.1C98.6,26.2,100.9,28.2,103.6,28.2z"/>
		<path d="M128,34.4h-7.5V9.8h7.5v4.1c1.7-2.6,4.4-4.4,7.7-4.4v8h-2.1c-3.6,0-5.6,1.2-5.6,5.5C128,23,128,34.4,128,34.4z"/>
		<path d="M139.3,1.8h7.5v11.3c1.5-2.1,4.2-3.6,7.6-3.6c5.6,0,9.3,3.9,9.3,10.5v14.3h-7.5V21c0-3.3-1.8-5.2-4.7-5.2
			c-2.9,0-4.7,1.8-4.7,5.2v13.3h-7.5C139.3,34.3,139.3,1.8,139.3,1.8z"/>
		<path d="M180.1,34.7c-7.2,0-12.7-4.8-12.7-12.6S173,9.5,180.2,9.5c7.2,0,12.8,4.8,12.8,12.6S187.4,34.7,180.1,34.7z M180.1,28.2
			c2.7,0,5.2-2,5.2-6.1c0-4.2-2.5-6.1-5.1-6.1c-2.7,0-5.1,1.9-5.1,6.1C175.1,26.2,177.4,28.2,180.1,28.2z"/>
		<path d="M230.8,21.1c0-3.2-1.8-5-4.7-5s-4.7,1.8-4.7,5v13.3h-7.5V21.1c0-3.2-1.8-5-4.7-5s-4.7,1.8-4.7,5v13.3H197V9.8h7.5v3.1
			c1.5-2,4-3.3,7.2-3.3c3.7,0,6.7,1.6,8.4,4.6c1.6-2.6,4.7-4.6,8.3-4.6c6.1,0,10,3.9,10,10.5v14.3h-7.5V21.1H230.8z"/>
		<path d="M254.5,34.7c-7.2,0-12.4-4.8-12.4-12.6s5.1-12.6,12.4-12.6c7.2,0,12.2,4.8,12.2,12.2c0,0.7,0,1.5-0.1,2.2h-17
			c0.3,3.2,2.2,4.7,4.7,4.7c2.1,0,3.3-1.1,3.9-2.4h8C265,31,260.6,34.7,254.5,34.7z M249.6,19.7h9.4c0-2.7-2.1-4.2-4.6-4.2
			S250.1,17,249.6,19.7z"/>
		<path d="M280.7,34.7c-6.6,0-11-3.7-11.3-8.4h7.4c0.2,1.7,1.7,2.9,3.8,2.9c1.9,0,2.9-0.9,2.9-2c0-4-13.4-1.1-13.4-10.1
			c0-4.2,3.6-7.6,10-7.6c6.3,0,9.9,3.5,10.3,8.4h-7c-0.2-1.7-1.5-2.8-3.6-2.8c-1.8,0-2.7,0.7-2.7,1.9c0,3.9,13.3,1.1,13.4,10.3
			C290.6,31.5,286.8,34.7,280.7,34.7z"/>
		<path d="M296,16.1h-2.7V9.9h2.7V9.2c0-6.4,4-9.6,11.4-9.2v6.4c-2.9-0.2-3.9,0.7-3.9,3.3v0.2h4v6.2h-4v18.3H296V16.1z"/>
		<path d="M322.3,34.7c-7.2,0-12.7-4.8-12.7-12.6s5.6-12.6,12.8-12.6s12.8,4.8,12.8,12.6S329.5,34.7,322.3,34.7z M322.3,28.2
			c2.7,0,5.2-2,5.2-6.1c0-4.2-2.5-6.1-5.1-6.1c-2.7,0-5.1,1.9-5.1,6.1C317.2,26.2,319.5,28.2,322.3,28.2z"/>
		<path d="M346.6,34.4h-7.5V9.8h7.5v4.1c1.7-2.6,4.4-4.4,7.7-4.4v8h-2.1c-3.6,0-5.6,1.2-5.6,5.5V34.4L346.6,34.4z"/>
		<path d="M367.9,34.7c-6.6,0-11-3.7-11.3-8.4h7.4c0.2,1.7,1.7,2.9,3.8,2.9c1.9,0,2.9-0.9,2.9-2c0-4-13.4-1.1-13.4-10.1
			c0-4.2,3.6-7.6,10-7.6c6.3,0,9.9,3.5,10.3,8.4h-7c-0.2-1.7-1.5-2.8-3.6-2.8c-1.8,0-2.7,0.7-2.7,1.9c0,3.9,13.3,1.1,13.4,10.3
			C377.9,31.5,374.1,34.7,367.9,34.7z"/>
		<path d="M391.8,9.5c3.7,0,6.2,1.7,7.6,3.8V9.8h7.5v24.6h-7.5v-3.5c-1.4,2.2-4,3.8-7.6,3.8c-6,0-10.8-4.9-10.8-12.7
			S385.8,9.5,391.8,9.5z M394,16c-2.8,0-5.4,2.1-5.4,6s2.6,6.1,5.4,6.1c2.9,0,5.4-2.2,5.4-6.1S396.9,16,394,16z"/>
		<path d="M412.4,1.8h7.5v32.6h-7.5V1.8z"/>
		<path d="M436.3,34.7c-7.2,0-12.4-4.8-12.4-12.6S429,9.5,436.3,9.5c7.2,0,12.2,4.8,12.2,12.2c0,0.7,0,1.5-0.1,2.2h-17
			c0.3,3.2,2.2,4.7,4.7,4.7c2.1,0,3.3-1.1,3.9-2.4h8C446.7,31,442.4,34.7,436.3,34.7z M431.4,19.7h9.4c0-2.7-2.1-4.2-4.6-4.2
			S431.8,17,431.4,19.7z"/>
		<path class="st0" d="M456,34.7c-2.7,0-4.5-1.8-4.5-4c0-2.3,1.8-4.1,4.5-4.1c2.6,0,4.4,1.8,4.4,4.1C460.4,32.9,458.6,34.7,456,34.7
			z"/>
		<path class="st0" d="M475.7,9.5c6.2,0,10.5,3.4,11.8,9.2h-8c-0.6-1.7-1.8-2.8-3.9-2.8c-2.7,0-4.5,2.1-4.5,6.2s1.8,6.2,4.5,6.2
			c2.1,0,3.3-1,3.9-2.8h8c-1.3,5.7-5.6,9.2-11.8,9.2c-7.2,0-12.3-4.8-12.3-12.6C463.4,14.4,468.5,9.5,475.7,9.5z"/>
		<path class="st0" d="M502.7,34.7c-7.2,0-12.7-4.8-12.7-12.6s5.6-12.6,12.8-12.6c7.2,0,12.8,4.8,12.8,12.6S509.9,34.7,502.7,34.7z
			 M502.7,28.2c2.7,0,5.2-2,5.2-6.1c0-4.2-2.5-6.1-5.1-6.1c-2.7,0-5.1,1.9-5.1,6.1C497.6,26.2,499.9,28.2,502.7,28.2z"/>
		<path class="st0" d="M553.3,21.1c0-3.2-1.8-5-4.7-5s-4.7,1.8-4.7,5v13.3h-7.5V21.1c0-3.2-1.8-5-4.7-5s-4.7,1.8-4.7,5v13.3h-7.5
			V9.8h7.5v3.1c1.5-2,4-3.3,7.2-3.3c3.7,0,6.7,1.6,8.4,4.6c1.6-2.6,4.7-4.6,8.3-4.6c6.1,0,10,3.9,10,10.5v14.3h-7.5L553.3,21.1
			L553.3,21.1z"/>
		<path d="M569.6,34.7c-2.7,0-4.5-1.8-4.5-4c0-2.3,1.8-4.1,4.5-4.1c2.6,0,4.4,1.8,4.4,4.1C574.1,32.9,572.3,34.7,569.6,34.7z"/>
		<path d="M587.8,9.5c3.7,0,6.2,1.7,7.6,3.8V9.8h7.5v24.6h-7.5v-3.5c-1.4,2.2-4,3.8-7.6,3.8c-6,0-10.8-4.9-10.8-12.7
			S581.8,9.5,587.8,9.5z M590,16c-2.8,0-5.4,2.1-5.4,6s2.6,6.1,5.4,6.1c2.9,0,5.4-2.2,5.4-6.1S592.9,16,590,16z"/>
		<path d="M632.6,34.4h-7.5v-3.3c-1.5,2.1-4.1,3.6-7.4,3.6c-5.7,0-9.5-3.9-9.5-10.5V9.9h7.5v13.3c0,3.3,1.9,5.2,4.7,5.2
			c2.9,0,4.8-1.8,4.8-5.2V9.9h7.5v24.5H632.6z"/>
	</g>
</g>
<g>
	<path d="M377,46.5c0.7-0.3,1.3-0.4,2.2-0.4c1.2,0,2.2,0.4,3,1.2s1.1,1.9,1.1,3.2c0,0.4,0,0.9-0.1,1.3c-0.2,1.1-0.6,2.2-1.2,3.1
		c-0.6,0.9-1.3,1.6-2.1,2c-0.9,0.4-1.8,0.7-2.7,0.7c-0.8,0-1.5-0.1-2-0.4c-0.6-0.3-0.9-0.8-1.2-1.2l-0.3,1.6h-3.5l2.7-15.1h3.5
		l-1,5.4C375.8,47.3,376.4,46.8,377,46.5z M379.7,51.2c0-0.7-0.2-1.2-0.6-1.6c-0.3-0.3-0.9-0.6-1.5-0.6c-0.7,0-1.3,0.2-1.9,0.8
		c-0.6,0.6-0.9,1.2-1.1,2c0,0.2-0.1,0.4-0.1,0.7c0,0.7,0.2,1.2,0.6,1.6c0.3,0.3,0.9,0.6,1.5,0.6c0.7,0,1.3-0.2,1.9-0.8
		c0.6-0.6,1-1.2,1.1-2.1C379.7,51.6,379.7,51.4,379.7,51.2z"/>
	<path d="M388.9,46.1l1.3,7.1l3.9-7.1h3.8l-10.2,16.7H384l3.7-5.8L385,46h3.9V46.1z"/>
	<path d="M421,43.2l-2.6,14.3H415l1.6-8.6l-4.7,8.6h-2.8l-1.7-8.6l-1.6,8.6h-3.5l2.6-14.3h4.1l2.2,9.9l5.7-9.9
		C417,43.2,421,43.2,421,43.2z"/>
	<path d="M422.7,48.7c0.6-0.9,1.3-1.6,2.1-2c0.9-0.4,1.8-0.7,2.7-0.7c0.8,0,1.5,0.1,2,0.4c0.6,0.3,0.9,0.8,1.2,1.3l0.3-1.6h3.5
		l-2,11.3h-3.5l0.3-1.6c-0.4,0.6-1,1-1.7,1.3c-0.7,0.3-1.5,0.4-2.2,0.4c-0.8,0-1.6-0.2-2.1-0.6c-0.7-0.3-1.1-0.9-1.5-1.6
		c-0.3-0.7-0.6-1.5-0.6-2.3c0-0.4,0-0.9,0.1-1.3C421.8,50.7,422.1,49.6,422.7,48.7z M430.2,51.2c0-0.7-0.2-1.2-0.6-1.6
		c-0.3-0.3-0.9-0.6-1.5-0.6c-0.7,0-1.3,0.2-1.9,0.8c-0.6,0.4-0.9,1.2-1.1,2c0,0.2-0.1,0.4-0.1,0.7c0,0.7,0.2,1.2,0.6,1.6
		c0.3,0.3,0.9,0.6,1.5,0.6c0.7,0,1.3-0.2,1.9-0.8c0.6-0.6,0.9-1.2,1.1-2C430.1,51.6,430.2,51.4,430.2,51.2z"/>
	<path d="M442.2,46.6c0.7-0.3,1.5-0.6,2.1-0.6l-0.7,3.7h-1c-0.9,0-1.6,0.2-2,0.6c-0.6,0.3-0.8,1-1,2l-0.9,5.2h-3.5l2-11.4h3.5
		l-0.3,2C440.9,47.6,441.6,47,442.2,46.6z"/>
	<path d="M451.7,51.8l3.8,5.7h-4.4l-2.7-4.8l-0.8,4.8h-3.5l2.7-15.1h3.5l-1.5,8.4l4.2-4.6h4.4L451.7,51.8z"/>
	<path d="M467.7,47.2c0.9,0.8,1.3,1.9,1.3,3.2c0,0.4,0,0.9-0.1,1.2c0,0.3-0.1,0.7-0.2,1h-7.9c0,0.1,0,0.2,0,0.3c0,0.6,0.1,1,0.4,1.3
		c0.3,0.3,0.8,0.4,1.3,0.4c0.9,0,1.6-0.3,2-1.1h3.7c-0.4,1.1-1.3,2.1-2.3,2.8c-1.1,0.8-2.3,1.1-3.7,1.1c-1.5,0-2.7-0.4-3.6-1.2
		c-0.9-0.8-1.3-1.9-1.3-3.3c0-0.4,0-0.9,0.1-1.3c0.2-1.2,0.7-2.2,1.2-3.1c0.7-0.9,1.5-1.6,2.3-2c1-0.4,2-0.7,3.1-0.7
		C465.6,46,466.8,46.4,467.7,47.2z M465.5,50.5c0-0.6-0.2-1-0.6-1.2c-0.3-0.3-0.8-0.4-1.3-0.4c-0.6,0-1.1,0.2-1.6,0.6
		c-0.4,0.3-0.8,0.9-1,1.6h4.4C465.5,50.7,465.5,50.6,465.5,50.5z"/>
	<path d="M474.6,53.6c0,0.1,0,0.1,0,0.2c0,0.2,0.1,0.4,0.2,0.6c0.1,0.1,0.3,0.1,0.7,0.1h1.2l-0.6,3h-1.8c-2.2,0-3.5-1-3.5-2.9
		c0-0.3,0-0.7,0.1-1.1l0.8-4.6h-1.3L471,46h1.3l0.4-2.8h3.5l-0.4,2.8h2.2l-0.6,2.9h-2.2L474.6,53.6z"/>
	<path d="M485.2,46.5c0.7-0.3,1.3-0.4,2.2-0.4c1.2,0,2.2,0.4,3,1.2c0.8,0.8,1.1,1.9,1.1,3.2c0,0.4,0,0.9-0.1,1.3
		c-0.2,1.1-0.6,2.2-1.2,3.1c-0.6,0.9-1.3,1.6-2.1,2c-0.9,0.4-1.8,0.7-2.7,0.7c-0.8,0-1.5-0.1-2-0.4c-0.6-0.3-0.9-0.8-1.2-1.2l-1.2,7
		h-3.5l3-16.9h3.5l-0.3,1.6C484,47.3,484.6,46.8,485.2,46.5z M487.9,51.2c0-0.7-0.2-1.2-0.6-1.6c-0.3-0.3-0.9-0.6-1.5-0.6
		c-0.7,0-1.3,0.2-1.9,0.8c-0.6,0.6-0.9,1.2-1.1,2c0,0.2-0.1,0.4-0.1,0.7c0,0.7,0.2,1.2,0.6,1.6c0.3,0.3,0.9,0.6,1.5,0.6
		c0.7,0,1.3-0.2,1.9-0.8c0.6-0.6,1-1.2,1.1-2.1C487.9,51.6,487.9,51.4,487.9,51.2z"/>
	<path d="M498.5,42.5l-2.7,15.1h-3.5l2.7-15.1H498.5z"/>
	<path d="M500.2,48.7c0.6-0.9,1.3-1.6,2.1-2c0.9-0.4,1.8-0.7,2.7-0.7c0.8,0,1.5,0.1,2,0.4c0.6,0.3,0.9,0.8,1.2,1.3l0.3-1.6h3.5
		l-2,11.4h-3.5l0.3-1.6c-0.4,0.6-1,1-1.7,1.3c-0.7,0.3-1.5,0.4-2.2,0.4c-0.8,0-1.6-0.2-2.1-0.6c-0.7-0.3-1.1-0.9-1.5-1.6
		c-0.3-0.7-0.6-1.5-0.6-2.3c0-0.4,0-0.9,0.1-1.3C499.2,50.7,499.5,49.6,500.2,48.7z M507.6,51.2c0-0.7-0.2-1.2-0.6-1.6
		c-0.3-0.3-0.9-0.6-1.5-0.6c-0.7,0-1.3,0.2-1.9,0.8c-0.6,0.4-0.9,1.2-1.1,2c0,0.2-0.1,0.4-0.1,0.7c0,0.7,0.2,1.2,0.6,1.6
		c0.3,0.3,0.9,0.6,1.5,0.6c0.7,0,1.3-0.2,1.9-0.8c0.6-0.6,0.9-1.2,1.1-2C507.6,51.6,507.6,51.4,507.6,51.2z"/>
	<path d="M514.3,48.7c0.7-0.9,1.5-1.6,2.3-2c0.9-0.4,2-0.7,3.1-0.7c1.5,0,2.6,0.3,3.3,1.1c0.8,0.8,1.2,1.8,1.3,3.1h-3.7
		c-0.1-0.9-0.7-1.3-1.6-1.3c-0.7,0-1.2,0.2-1.7,0.8c-0.4,0.4-0.8,1.2-0.9,2.1c0,0.3-0.1,0.6-0.1,0.9c0,0.7,0.1,1.1,0.4,1.5
		c0.3,0.3,0.7,0.6,1.2,0.6c0.9,0,1.6-0.4,2-1.3h3.7c-0.6,1.3-1.3,2.3-2.5,3.1c-1.1,0.8-2.3,1.1-3.8,1.1s-2.7-0.4-3.5-1.2
		c-0.9-0.8-1.3-1.9-1.3-3.3c0-0.4,0-0.9,0.1-1.3C513.3,50.7,513.6,49.6,514.3,48.7z"/>
	<path d="M535.8,47.2c0.9,0.8,1.3,1.9,1.3,3.2c0,0.4,0,0.9-0.1,1.2c0,0.3-0.1,0.7-0.2,1h-7.9c0,0.1,0,0.2,0,0.3c0,0.6,0.1,1,0.4,1.3
		c0.3,0.3,0.8,0.4,1.3,0.4c0.9,0,1.6-0.3,2-1.1h3.7c-0.4,1.1-1.3,2.1-2.3,2.8c-1.1,0.8-2.3,1.1-3.7,1.1c-1.5,0-2.7-0.4-3.6-1.2
		c-0.9-0.8-1.3-1.9-1.3-3.3c0-0.4,0-0.9,0.1-1.3c0.2-1.2,0.7-2.2,1.2-3.1c0.7-0.9,1.5-1.6,2.3-2c1-0.4,2-0.7,3.1-0.7
		C533.8,46,535,46.4,535.8,47.2z M533.7,50.5c0-0.6-0.2-1-0.6-1.2c-0.3-0.3-0.8-0.4-1.3-0.4c-0.6,0-1.1,0.2-1.6,0.6
		c-0.4,0.3-0.8,0.9-1,1.6h4.4C533.7,50.7,533.7,50.6,533.7,50.5z"/>
	<path d="M555.8,57.5h-3.5l-4.2-8.8l-1.6,8.8h-3.5l2.6-14.3h3.5l4.2,8.9l1.6-8.9h3.5L555.8,57.5z"/>
	<path d="M569.1,47.2c0.9,0.8,1.3,1.9,1.3,3.2c0,0.4,0,0.9-0.1,1.2c0,0.3-0.1,0.7-0.2,1h-7.9c0,0.1,0,0.2,0,0.3c0,0.6,0.1,1,0.4,1.3
		c0.3,0.3,0.8,0.4,1.3,0.4c0.9,0,1.6-0.3,2-1.1h3.7c-0.4,1.1-1.3,2.1-2.3,2.8c-1.1,0.8-2.3,1.1-3.7,1.1c-1.5,0-2.7-0.4-3.6-1.2
		c-0.9-0.8-1.3-1.9-1.3-3.3c0-0.4,0-0.9,0.1-1.3c0.2-1.2,0.7-2.2,1.2-3.1c0.7-0.9,1.5-1.6,2.3-2c1-0.4,2-0.7,3.1-0.7
		C567.1,46,568.2,46.4,569.1,47.2z M567,50.5c0-0.6-0.2-1-0.6-1.2c-0.3-0.3-0.8-0.4-1.3-0.4c-0.6,0-1.1,0.2-1.6,0.6
		c-0.4,0.3-0.8,0.9-1,1.6h4.4C566.8,50.7,567,50.6,567,50.5z"/>
	<path d="M576,53.6c0,0.1,0,0.1,0,0.2c0,0.2,0.1,0.4,0.2,0.6c0.1,0.1,0.3,0.1,0.7,0.1h1.2l-0.6,3h-1.8c-2.2,0-3.5-1-3.5-2.9
		c0-0.3,0-0.7,0.1-1.1l0.8-4.6h-1.3l0.6-2.9h1.3l0.4-2.8h3.5l-0.4,2.8h2.2l-0.6,2.9h-2.2L576,53.6z"/>
	<path d="M598.1,46.1L593,57.5h-3.9l-0.4-7.4l-3.1,7.4h-3.8l-1.1-11.4h3.5l0.1,8.2l3.3-8.2h3.7l0.6,8.2l3-8.2H598.1z"/>
	<path d="M600.2,57.1c-0.8-0.4-1.3-1-1.8-1.7c-0.4-0.7-0.7-1.6-0.7-2.5c0-1.3,0.3-2.5,0.9-3.6s1.5-1.9,2.6-2.5
		c1.1-0.6,2.2-0.9,3.6-0.9c1,0,1.9,0.2,2.6,0.6c0.8,0.4,1.3,1,1.8,1.7c0.4,0.7,0.7,1.6,0.7,2.5c0,1.3-0.3,2.5-0.9,3.6
		c-0.7,1-1.5,1.9-2.6,2.5c-1.1,0.6-2.2,0.9-3.6,0.9C601.9,57.8,601,57.5,600.2,57.1z M604.9,54.2c0.4-0.3,0.8-0.8,1.1-1.3
		c0.2-0.6,0.3-1.1,0.3-1.7c0-0.7-0.2-1.2-0.6-1.6c-0.3-0.3-0.8-0.6-1.3-0.6c-0.6,0-1.1,0.2-1.6,0.6c-0.4,0.3-0.8,0.8-1,1.3
		c-0.2,0.6-0.3,1.1-0.3,1.8c0,0.7,0.2,1.2,0.6,1.6c0.3,0.3,0.8,0.6,1.3,0.6C603.9,54.7,604.5,54.5,604.9,54.2z"/>
	<path d="M617.8,46.6c0.7-0.3,1.5-0.6,2.1-0.6l-0.7,3.7h-1c-0.9,0-1.6,0.2-2,0.6c-0.6,0.3-0.8,1-1,2l-0.9,5.2h-3.5l2-11.4h3.5
		l-0.3,2C616.5,47.6,617.1,47,617.8,46.6z"/>
	<path d="M627.4,51.8l3.8,5.7h-4.4l-2.7-4.8l-0.8,4.8h-3.5l2.7-15.1h3.5l-1.5,8.4l4.2-4.6h4.4L627.4,51.8z"/>
</g>
</svg>
