<?xml version="1.0" encoding="utf-8"?>
<!-- Generator: Adobe Illustrator 25.2.0, SVG Export Plug-In . SVG Version: 6.00 Build 0)  -->
<svg version="1.1" id="Layer_1" xmlns="http://www.w3.org/2000/svg" xmlns:xlink="http://www.w3.org/1999/xlink" x="0px" y="0px"
	 viewBox="0 0 500 500" style="enable-background:new 0 0 500 500;" xml:space="preserve">
<style type="text/css">
	.st0{fill:#EC7200;}
	.st1{fill:#939393;}
</style>
<path class="st0" d="M292.3,440.3c-4.2,0-8.4-1.1-12-4.1c-4.3-3.6-5.8-5.4-7-6.7c-1.8-2.1-2.2-2.5-17-10.1c-8.9-4.5-13.3-8.7-14-13
	c-0.7-4.5,2.6-7.8,5.2-10.5c1.2-1.2,2.3-2.3,2.9-3.4c0.9-1.5,1-3.1,0.4-4.8c-0.9-2.4-4.9-8.3-21.8-13c-10.6-2.9-19.6-3.2-27.6-3.5
	c-8-0.3-15.5-0.6-22.8-3.4c-7-2.6-9-7.5-10.5-11c-0.8-2-1.4-3.2-2.2-3.5c-0.9-0.3-3.1-0.2-8.3,2.2c-19.9,9.5-27.1,7.7-38.3-9.7
	c-4-6.2-7.6-9.3-10.8-12c-5-4.3-9-7.7-8.7-19.6c0.1-4.2-0.9-7.2-2.9-8.9c-4.2-3.5-13.1-1.7-19-0.4l-0.8,0.2
	c-10.4,2-17.6-17.2-19.9-24.3H19.1c-1.4,0-2.5-1.1-2.5-2.5v-195c0-1.4,1.1-2.5,2.5-2.5H316l4.3-4.4c0.4-0.4,0.9-0.7,1.5-0.7
	c0.3,0,8.3-1,29,0c14.8,0.8,16.2,1.3,24.9,5.4c3.3,1.6,7.8,3.8,14.9,6.7c2.9,1.2,5.1,2.2,6.9,2.9c1.3-1.3,3.8-1,6.9-0.4
	c4.9,0.9,8.5,2.2,11.5,3.2c5.8,2.1,6.2,2.2,7.9-1.8l0.1-0.2c4-9.3,7.4-17.3,27.5-12c4.2,1.1,7.1,0.8,8.7-0.8c2.7-2.7,1.8-9,1.2-11.2
	c-0.3-1.3,0.4-2.6,1.6-3l12.6-4.2c0.7-0.2,1.4-0.2,2,0.2c0.6,0.3,1.1,0.9,1.2,1.6c3.8,15.1,7.1,31.2,1.6,47.1c0,0,0,0,0,0
	c-3.7,10.6-8.9,22.9-14.4,35.9c-11,26-22.5,53-22.5,68.6c0,11.5-0.2,14-6,15.6c-3.4,1-9.7,2.8-21.9,17.7
	c-5.7,6.9-11.1,13.4-16.4,19.6c-18.1,21.2-32.5,38-34.4,54c-1.6,13.4-7.4,21.6-14.1,31c-4.4,6.2-9.4,13.3-14,23.1
	c-11.4,24-18.6,41.6-19.3,55c0,0.8-0.4,1.5-1,1.9C315.7,431.8,303.9,440.3,292.3,440.3z"/>
<path class="st0" d="M165,348.1c1,0,1.9,0.2,2.7,0.5c2.9,1.1,4,3.7,5,6.2c1.3,3.2,2.7,6.4,7.6,8.3c6.6,2.5,13.4,2.7,21.3,3
	c8.2,0.3,17.6,0.7,28.7,3.7c17.5,4.8,23.3,11.4,25.2,16c1.2,3.1,1,6.4-0.8,9.2c-0.9,1.5-2.3,2.9-3.6,4.2c-2.1,2.2-4.2,4.3-3.9,6.2
	c0.3,1.8,2.5,4.8,11.4,9.4c15.2,7.8,16,8.5,18.4,11.3c1,1.2,2.5,2.8,6.4,6.1c9.2,7.7,25-1.7,29-4.4c1.1-14,8.3-31.7,19.7-55.6
	c4.8-10.2,10-17.4,14.5-23.8c6.5-9.2,11.7-16.5,13.2-28.7c2.1-17.5,16.9-34.8,35.6-56.6c5.3-6.2,10.7-12.6,16.4-19.5
	c13.2-16.2,20.5-18.3,24.4-19.4c1.6-0.5,1.6-0.5,1.8-0.9c0.5-1.4,0.6-4.7,0.6-9.9c0-16.6,11.6-44,22.9-70.5
	c5.5-12.9,10.7-25.1,14.3-35.6l0,0c4.7-13.8,2.3-28.1-1.1-41.7l-7.9,2.6c0.5,3.5,0.9,9.9-3,13.7c-2.9,3-7.5,3.7-13.5,2.1
	c-16-4.2-17.9,0.2-21.7,9.1l-0.1,0.2c-3.5,8.3-8.5,6.5-14.2,4.5c-2.7-1-6.1-2.2-10.4-3c-0.1,0.3-0.2,0.6-0.3,0.9
	c-1.1,2-2.9,1.3-5.5,0.2c-1.8-0.7-4.6-1.9-9.2-3.9c-7.2-3-11.8-5.2-15.1-6.8c-7.9-3.8-8.7-4.2-23-5c-16.6-0.8-24.8-0.3-27.3-0.1
	l-4.4,4.5c-0.5,0.5-1.1,0.8-1.8,0.8H21.6v190h37.5c1.1,0,2.1,0.7,2.4,1.8c2.9,9.7,9.6,23.7,14.7,22.7l0.8-0.2
	c7.2-1.5,17.1-3.6,23.2,1.5c3.3,2.7,4.8,7,4.7,12.9c-0.2,9.5,2.2,11.5,7,15.7c3.3,2.8,7.3,6.3,11.7,13.1
	c9.8,15.2,14.3,16.3,31.9,7.9C159.6,349,162.6,348.1,165,348.1z"/>
<path class="st1" d="M478,108.2L478,108.2L478,108.2z"/>
</svg>
