<?xml version="1.0" encoding="utf-8"?>
<!-- Generator: Adobe Illustrator 25.2.0, SVG Export Plug-In . SVG Version: 6.00 Build 0)  -->
<svg version="1.1" id="Layer_1" xmlns="http://www.w3.org/2000/svg" xmlns:xlink="http://www.w3.org/1999/xlink" x="0px" y="0px"
	 viewBox="0 0 500 500" style="enable-background:new 0 0 500 500;" xml:space="preserve">
<style type="text/css">
	.st0{fill:#EC7200;}
</style>
<path class="st0" d="M380.8,485.4H119.2c-1.4,0-2.5-1.1-2.5-2.5V141.2c0-1.3,1-2.4,2.4-2.5c2.1-0.1,4.6,0.4,7.4,1.5
	c5.4,2,8.6,1.6,9.8,0.6c0.6-0.5,0.8-1.2,0.5-2.1c-1.5-6.8-3-19.1,4.1-25.9c0.9-0.9,1.6-1.5,2.1-1.9c0.1-0.1,0.3-0.2,0.4-0.3
	c0.3-1.4,1.4-4.3,7.5-13.9c4.4-7.1,4.8-14.8,5.1-21.6c0.5-10.7,1-21.8,20-22.1c12.7-0.2,16.3,1.6,19,3.6c0.9,0.7,1.3,1,11.9-3.4
	c11.5-4.8,17.5-7.9,17.9-9.3c0-0.4-1-1.5-1.7-2.4l-0.1-0.1c-1.4-1.8-2.2-3.7-2.9-5.6c-1.5-4-2.6-6.8-8.9-7.1c-4.3-0.2-5.9-2-6.4-3.4
	c-0.7-1.9,0.1-4.2,2.1-6.1c3.9-3.7,11.8-6.1,18.6-3.1c5.8,2.5,7.8,6.7,9.4,10c1.9,4,3.2,6.7,10.3,6.9c5.4,0.2,8.2-0.8,10.7-1.7
	c4.9-1.7,8.2-2.4,17.5,4.1c4,2.7,7,5.4,9.5,7.4c6.5,5.5,8.9,7.6,17.1,4.5c3.3-1.2,5.5-2.1,6.9-2.7c3.5-1.5,4.2-1.7,6.9-0.7
	c0.7,0.2,1.6,0.6,2.9,0.9c2.4,0.6,7.1-3.6,10.6-6.8c5-4.5,10.2-9.2,14-5.3c3.1,3.1,1,8.9-1.3,15.7c-1.4,4-3.5,10.1-2.5,11.8
	c0,0.1,0.1,0.2,0.5,0.2c1.7,0.3,2.4-0.4,4-3.9c1-2.4,2.2-5.1,5-5.9c2-0.6,4.4,0,7.2,1.9c3.4,2.3,5.1,3.7,5.2,5.7
	c0.2,1.9-1.2,3.1-2.3,4.2c-1.9,1.8-4.7,4.4-5.8,11.6c-0.8,5.5-0.2,8.9,0.2,11.3c1.2,7.1-1.5,8.1-11.8,10.9c-8.1,2.1-11.7,3.9-13,6.2
	c-1.5,2.7-0.3,7.6,2,14.5c2.6,7.7,1.5,10.6-1.7,13.3c-1.6,1.4-3.2,2.8-0.3,12.8c4.3,14.5,16,17.6,26.3,20.4c3.9,1,7.6,2,10.6,3.6
	c4.5,2.1,7.4,6.2,10.8,11c2.3,3.3,4.8,6.7,8,9.9c0.5,0.5,0.7,1.1,0.7,1.8v293.1C383.3,484.3,382.2,485.4,380.8,485.4z"/>
<path class="st0" d="M121.7,480.4h256.6V190.8c-3.2-3.3-5.7-6.8-7.8-9.9c-3-4.2-5.6-7.9-8.9-9.4c0,0-0.1,0-0.1-0.1
	c-2.5-1.3-6-2.2-9.6-3.2c-10.4-2.8-24.7-6.6-29.8-23.8c-3.5-12.1-1.3-15.3,1.8-18c1.3-1.2,2.2-2,0.2-8c-2.9-8.7-4-14.2-1.7-18.5
	c2.3-4.3,7.7-6.5,16.1-8.7c2.5-0.7,7.8-2.1,8.4-2.9c0.1-0.3-0.1-1.4-0.3-2.3c-0.4-2.6-1.1-6.6-0.2-12.8c1.3-9,5.2-12.6,7.3-14.6
	c0.1-0.1,0.2-0.2,0.3-0.3c-0.5-0.4-1.2-1-2.6-1.8c-2.1-1.4-2.9-1.3-3-1.2c-0.6,0.2-1.4,1.9-1.9,3.1c-1.3,2.9-3.4,7.8-9.4,6.8
	c-2.2-0.4-3.4-1.6-4-2.6c-2.1-3.6-0.1-9.6,2.1-15.9c1.1-3.2,3.1-9,2.5-10.5c-1.4,0.2-5,3.4-7.2,5.4c-5,4.5-10.3,9.2-15.3,7.9
	c-1.5-0.4-2.5-0.8-3.3-1c-0.4-0.1-0.8-0.3-1-0.3c-0.2,0-1.3,0.5-2.4,0.9c-1.5,0.6-3.7,1.5-7,2.8c-11,4.1-15.4,0.4-22.1-5.3
	c-2.5-2.1-5.3-4.5-9.1-7.1c-7.7-5.4-9.4-4.8-13-3.5c-2.6,0.9-6.2,2.2-12.5,2c-10.1-0.3-12.5-5.4-14.6-9.8c-1.5-3.1-2.8-5.9-6.9-7.6
	c-4.9-2.1-9.5-0.1-10.8,0.5c-1.6,0.8-2.5,1.7-2.9,2.2c0.3,0.1,0.9,0.2,1.7,0.2c9.6,0.4,11.8,6.1,13.4,10.3c0.6,1.6,1.2,3.2,2.2,4.3
	l0.1,0.1c1.6,2,3.3,4.1,2.6,6.8c-0.9,3.5-5.6,6.4-20.9,12.7c-11.7,4.8-13.6,5.1-16.8,2.8c-1.3-1-3.8-2.8-15.9-2.6
	c-14.3,0.3-14.6,6.3-15.1,17.4c-0.3,7.1-0.7,15.8-5.8,24.1c-5.9,9.4-6.8,11.9-6.9,12.5c-0.2,1.3-0.7,1.8-1.9,2.8
	c-0.4,0.4-1.1,1-2,1.8c-5.3,5-4,15.4-2.7,21.1c0.6,2.7-0.2,5.3-2.1,6.9c-1.8,1.6-6.1,3.7-14.9,0.3c-1.1-0.4-2.1-0.7-3-0.9V480.4z"/>
</svg>
