<?xml version="1.0" encoding="utf-8"?>
<!-- Generator: Adobe Illustrator 25.2.0, SVG Export Plug-In . SVG Version: 6.00 Build 0)  -->
<svg version="1.1" id="Layer_1" xmlns="http://www.w3.org/2000/svg" xmlns:xlink="http://www.w3.org/1999/xlink" x="0px" y="0px"
	 viewBox="0 0 500 500" style="enable-background:new 0 0 500 500;" xml:space="preserve">
<style type="text/css">
	.st0{fill:#EC7200;}
	.st1{fill:#939393;}
</style>
<path class="st0" d="M370.4,480.6c-1.5,0-3-0.5-4.3-1c-1.3-0.5-2.9-1-4.9-1.5c-1.1,1.7-3,0.9-4.4,0.4c-1-0.4-2.7-1.1-5.3-2.2
	c-4.1-1.7-6.7-3-8.6-3.9c-4.6-2.2-4.8-2.3-12.8-2.7c-8.7-0.4-13.4-0.2-15.1-0.1l-2.3,2.3c-0.5,0.5-1.1,0.7-1.8,0.7H140.3
	c-1.4,0-2.5-1.1-2.5-2.5v-82.9h-40c-1.4,0-2.5-1.1-2.5-2.5V161.7c0-1,0.6-1.9,1.5-2.3c0.9-0.4,2-0.2,2.7,0.5
	c3.7,3.6,7.8,5.9,12.8,7.4c9,2.6,14.7,10,19.7,16.6c5.7,7.4,10.6,13.8,18.6,12.4c14.8-2.5,26.9-37.8,27.7-67.6
	c0.8-28.1,3.6-38.6,11.6-43.4c1.6-1,1-8.3,0.6-13c-0.8-9.5-1.7-20.2,6.5-21.9c4.1-0.8,7.2-11.1,9.3-17.9c2.3-7.5,3.8-12.4,7.3-13
	c1.2-0.2,2.9,0.1,4.6,2.5c3.7,5.2,3.4,13.5,3.2,20.7c-0.1,4-0.4,10.6,1,11.2c0.7,0.3,1.4,0.6,2.1,0.8c6.3,2.4,7.9,5,5.3,16.5
	c-1.2,5.1,2.1,9,5.9,13.5c4.3,5.1,9.2,10.9,6.7,19c-1.3,4.2-2.9,7.6-4.1,10.3c-3.1,6.7-3.3,7.6,0.7,9.8c2.6,1.4,3.7,0.6,5.6-0.8
	c1.5-1.1,3.3-2.4,5.7-2c2.3,0.4,4.3,2.2,6.7,5.9c2.6,4,6,6.4,9,8.5c5.2,3.6,10.6,7.4,4.9,17.6c-6.1,10.7,0,20.6,6.9,28.9
	c4,4.8,2.3,11.2,0.2,18.5c-1.4,5-3,10.6-3,16.6c0,5.8,2.7,7.2,7.2,9.4c4.9,2.5,11.1,5.5,13.6,15.7c2.4,9.7,11.7,14.2,19.9,18.2
	c6,2.9,11.1,5.4,13.4,9.6c3.1,5.7,3.3,8.7,3.5,12.6c0.2,2.6,0.4,5.6,1.5,10.3c0.2,1,0.5,2,0.8,3.1c2.5,10,5.8,23.8,12.5,22.9
	c1.7-0.2,3.5-0.6,5.1-1c3.9-0.9,7.9-1.9,11,0.6c3,2.4,4.1,7.3,3.8,16.4c-0.7,21.2,5.1,26.9,14.6,34.4c8.1,6.4,9.3,10.9,11,17.8
	c0.7,2.7,1.4,5.7,2.8,9.4c1.3,3.7,2.5,6.2,3.6,8.5c3.2,6.7,4.7,10.5,1.7,24.2c-1.8,8.2,0.4,16.8,2.6,25.2c0.3,1.1,0.6,2.1,0.8,3.2
	c0.3,1.3-0.4,2.6-1.7,3l-5.1,1.5c0.2,2.3,0.1,5.6-2.1,7.8c-2,2-4.9,2.5-8.8,1.5c-8.2-2.1-9-0.3-11.2,4.6l-0.1,0.2
	C374.2,479.6,372.4,480.6,370.4,480.6z"/>
<path class="st0" d="M358.7,472.7c0.8,0,1.7,0.2,2.4,0.3c2.8,0.5,5,1.3,6.6,1.9c0.9,0.3,2.1,0.8,2.6,0.8c0.1-0.1,0.3-0.4,0.6-1.2
	l0.1-0.2c2.8-6.2,5.6-10.4,17-7.4c1.1,0.3,3.2,0.7,4-0.2c1-1,0.9-3.8,0.4-5.5c-0.3-1.3,0.4-2.7,1.7-3l4.9-1.4
	c-0.1-0.3-0.1-0.6-0.2-0.8c-2.4-9-4.8-18.3-2.7-27.6c2.8-12.6,1.5-15.2-1.3-20.9c-1.1-2.3-2.5-5.1-3.9-9c-1.4-4-2.2-7.2-2.9-9.8
	c-1.7-6.7-2.5-9.7-9.3-15.1c-10.5-8.3-17.3-15.4-16.6-38.5c0.3-8.6-0.9-11.5-1.9-12.3c-1.2-0.9-3.7-0.3-6.7,0.4
	c-1.7,0.4-3.7,0.9-5.7,1.1c-11.1,1.4-14.9-14.2-17.9-26.7c-0.3-1.1-0.5-2.1-0.8-3.1c-1.3-5.2-1.5-8.5-1.6-11.2
	c-0.2-3.6-0.4-5.8-2.9-10.6c-1.5-2.8-6.2-5-11.2-7.4c-8.7-4.2-19.6-9.4-22.6-21.4c-2-7.9-6.4-10.1-11-12.4c-4.7-2.3-10-5-10-13.9
	c0-6.7,1.7-12.7,3.1-18c1.9-6.9,3-11.2,0.7-13.9c-4.8-5.8-16-19.4-7.4-34.5c3.5-6.2,1.8-7.4-3.4-11c-3.2-2.2-7.2-5-10.3-9.9
	c-2.2-3.4-3.2-3.7-3.4-3.7c-0.3-0.1-1.2,0.6-1.9,1.1c-2.1,1.5-5.6,4.1-10.9,1.2c-8.3-4.5-5.7-10.3-2.9-16.3c1.3-2.7,2.7-5.8,3.9-9.7
	c1.7-5.6-1.8-9.6-5.8-14.4c-4.1-4.8-8.7-10.3-7-17.9c2-9.1,1.4-9.4-2.2-10.7c-0.7-0.3-1.5-0.6-2.4-0.9c-4.4-2-4.2-8.5-4-16
	c0.2-6.3,0.5-13.5-2.1-17.4c-1,1.8-2.2,5.8-3.1,8.9c-2.9,9.3-6.1,19.9-13.1,21.3c-3.8,0.8-3.1,9.5-2.5,16.5c0.7,8.1,1.3,15.1-3,17.7
	c-5.3,3.2-8.4,10.4-9.2,39.2c-0.8,28.2-12.3,69-31.9,72.4c-11,1.8-17.3-6.4-23.4-14.3c-4.8-6.3-9.8-12.7-17.2-14.9
	c-3.9-1.1-7.4-2.8-10.6-5.1v215.1h40c1.4,0,2.5,1.1,2.5,2.5v82.9h167.1l2.2-2.2c0.4-0.4,0.9-0.6,1.4-0.7c0.2,0,4.9-0.6,16.9,0
	c8.7,0.4,9.6,0.7,14.7,3.2c1.9,0.9,4.4,2.1,8.4,3.8c1.3,0.6,2.5,1,3.4,1.4C357.4,472.7,358.1,472.7,358.7,472.7z"/>
<path class="st1" d="M213.7,24.4L213.7,24.4L213.7,24.4z"/>
</svg>
