<?xml version="1.0" encoding="utf-8"?>
<!-- Generator: Adobe Illustrator 25.2.0, SVG Export Plug-In . SVG Version: 6.00 Build 0)  -->
<svg version="1.1" id="Layer_1" xmlns="http://www.w3.org/2000/svg" xmlns:xlink="http://www.w3.org/1999/xlink" x="0px" y="0px"
	 viewBox="0 0 500 500" style="enable-background:new 0 0 500 500;" xml:space="preserve">
<style type="text/css">
	.st0{fill:#EC7200;}
</style>
<path class="st0" d="M433,474.1c-0.6,0-1.3-0.2-1.8-0.7c-4.8-4.7-10.4-9.6-22.3-13.9c-17.9-6.5-18.2-28.2-18.6-47.4
	c-0.2-14.2-0.5-27.6-7.7-31.2c-7.3-3.7-13.3-3.8-17.7-3.9c-3.7-0.1-6.9-0.2-8.7-2.6c-1.7-2.2-1.8-5.6-0.3-12.1
	c2.2-9.3,5.8-12.7,8-14.3c-0.7-0.6-1.7-1.5-2.7-2.4c-7-6.2-11.4-4.5-18.7-1.7c-1.9,0.7-3.8,1.5-6,2.2c-1.9,0.6-7.8,2.5-10.5-1.1
	c-2.7-3.5-0.7-10,6.6-21.2c3.3-5.2,6.4-8.8,8.9-11.7c5.2-6.1,7.8-9.2,7.1-18.9c-0.2-3.2-0.3-6.2-0.4-8.8c-0.1-4.8-0.3-10.8-1.6-11.6
	c0,0-0.7-0.4-3.4,0.9c-2,1-2.1,3-1.8,7.5c0.5,7.3,1.4,18.4-21.1,20.5c-15.5,1.4-19.5,12.5-22.6,21.3c-1.9,5.4-3.6,10-7.7,11.4
	c-2.6,0.9-5.6,0.2-9.2-2c-8.9-5.6-10.5-12.8-11.9-19.1c-1.6-7.2-2.8-12.8-15-15.6c-24.7-5.6-33.5-8.9-40.8-35.7
	c-5.3-19.3-28.1-22.8-54.5-26.8c-5-0.8-10.1-1.6-15.2-2.5c-20-3.6-50.4-4.3-75.5,4.3c-0.8,0.3-1.6,0.1-2.3-0.3c-0.7-0.5-1-1.2-1-2
	v-206c0-1.4,1.1-2.5,2.5-2.5H433c1.4,0,2.5,1.1,2.5,2.5v443.1c0,1-0.6,1.9-1.5,2.3C433.7,474,433.3,474.1,433,474.1z"/>
<path class="st0" d="M352,336.3c3.8,0,7.9,1.4,12.5,5.5c4.2,3.7,5.3,4.7,5.2,6.6c-0.1,1.6-1.3,2.5-2.2,3.1
	c-1.7,1.1-4.7,3.3-6.8,11.9c-1.4,6-0.9,7.5-0.7,7.9c0.4,0.6,2.8,0.6,4.9,0.7c4.6,0.1,11.5,0.3,19.8,4.4c9.9,5,10.2,19.8,10.5,35.6
	c0.3,18.4,0.6,37.5,15.3,42.8c9.5,3.5,15.4,7.4,19.8,11.2V31H69.6v200.1c21.7-6.7,49.3-8,74.7-3.4c5,0.9,10.1,1.7,15.1,2.4
	c27,4.1,52.5,8,58.6,30.5c6.5,24.2,13.6,26.8,37,32.1c15.3,3.4,17.2,11.9,18.8,19.4c1.3,5.9,2.5,11.4,9.7,15.9
	c2.2,1.4,3.9,1.9,4.9,1.5c1.8-0.6,3.1-4.4,4.6-8.4c3.3-9.1,8.2-22.9,26.9-24.6c17.6-1.6,17.1-7.9,16.6-15.1
	c-0.3-4.3-0.7-9.7,4.5-12.3c2.2-1.1,5.5-2.4,8.2-0.7c3.6,2.2,3.8,7.5,4,15.7c0.1,2.6,0.2,5.5,0.4,8.6c0.8,11.8-2.8,16-8.3,22.5
	c-2.5,3-5.3,6.3-8.5,11.2c-8.4,13-6.8,15.4-6.8,15.5c0,0,1,0.7,5-0.6c2-0.6,3.9-1.4,5.7-2.1C344.5,337.7,348.1,336.3,352,336.3z"/>
</svg>
