<?xml version="1.0" encoding="utf-8"?>
<!-- Generator: Adobe Illustrator 25.2.0, SVG Export Plug-In . SVG Version: 6.00 Build 0)  -->
<svg version="1.1" id="Layer_1" xmlns="http://www.w3.org/2000/svg" xmlns:xlink="http://www.w3.org/1999/xlink" x="0px" y="0px"
	 viewBox="0 0 500 500" style="enable-background:new 0 0 500 500;" xml:space="preserve">
<style type="text/css">
	.st0{fill:#EC7200;}
</style>
<g>
	<path class="st0" d="M235.1,46.1c55.4,0,110.8,0,166.2,0c14.9,0,22.8,8,22.8,23c0,100.9,0,201.9-0.1,302.8c0,3.2,0.8,5.5,3.2,7.7
		c5.7,5.4,11.2,11,16.7,16.7c13.3,13.7,13.3,34.6,0.2,47.8c-13,13.1-34.1,13.2-47.8-0.1c-10.3-10-20.4-20.2-30.4-30.4
		c-2.1-2.2-4.3-3-7.3-3c-96.3,0.1-192.6,0.1-288.9,0.1c-15.9,0-23.6-7.7-23.6-23.5c0-105.9,0-211.7,0-317.6
		c0-15.6,7.8-23.4,23.2-23.4C124.6,46.1,179.8,46.1,235.1,46.1z M409.6,362.1c0.3-0.1,0.7-0.3,1-0.4c0-1.1,0-2.2,0-3.2
		c0-71.3,0-142.6,0.1-213.8c0-4-1.6-4.1-4.7-4.1c-113.9,0.1-227.8,0.1-341.6,0c-3.7,0-4.9,0.8-4.9,4.8c0.1,80.7,0.1,161.4,0.1,242.1
		c0,7.7,2,9.7,9.7,9.7c91.7,0,183.3,0,275,0c1.3,0,2.7,0,4,0c0.3-0.5,0.6-1,0.9-1.5c-1.5-1-3.2-1.9-4.4-3.1c-3.4-3.5-3.3-6.8,0-10.4
		c0.6-0.6,1.1-1.3,1.8-1.8c2.6-1.8,2-3.3-0.1-5.2c-3-2.7-6-5.6-8.6-8.6c-2-2.3-3.6-2.4-6.4-0.9c-17.7,9.8-36.6,13.3-56.6,10.1
		c-47.5-7.7-79.8-51.3-73.5-99c6.2-46.6,48.5-80.1,95.8-75.6c59.1,5.6,95.8,67.4,72.6,122c-1.8,4.2-6.5,8.3-5,12.3
		c1.4,4.1,6.5,6.8,9.6,10.4c2.5,2.9,4.1,2.9,6.8,0c4.4-4.9,7.7-4.7,12.4,0C399,351.3,404.2,356.7,409.6,362.1z M235.1,127.1
		c57.1,0,114.1,0,171.2,0.1c3.5,0,4.4-0.9,4.4-4.4c-0.2-18.1-0.1-36.3-0.1-54.4c0-6.6-2.3-8.8-8.9-8.8c-111,0-222.1,0-333.1,0
		c-6.7,0-8.9,2.2-8.9,8.8c0,18,0.1,36-0.1,54c0,3.8,0.9,4.8,4.8,4.8C121.2,127.1,178.2,127.1,235.1,127.1z M440.1,421
		c0-6.3-1.8-11.1-5.6-15c-15-15.1-30.2-30.2-45.2-45.4c-1.6-1.6-2.5-1.5-4,0c-8.2,8.3-16.4,16.6-24.7,24.7c-1.7,1.6-1.4,2.6,0.1,4
		c3,2.8,5.8,5.7,8.7,8.6c12,12,24,24.1,36.1,36c6.4,6.3,14.2,7.8,22.5,4.3C435.9,434.9,439.7,428.5,440.1,421z M289.3,363.3
		c40.9,0,74.1-33.4,74-74.5c0-40.4-33.4-73.9-73.8-73.9c-41.2-0.1-74.7,33.1-74.7,73.9C214.9,330.1,248,363.3,289.3,363.3z
		 M355.9,346.5c-1.6,1.5-3.1,2.8-4.6,4.3c-5,5-5,5,0.1,10.1c7.9,7.9,7.9,7.9,15.2-0.5c0.1-0.1,0.2-0.2,0.3-0.3
		c1-0.9,1.2-1.7,0.1-2.7c-3.3-3.2-6.6-6.5-9.8-9.8C356.7,347.2,356.3,346.9,355.9,346.5z"/>
	<path class="st0" d="M235.1,167.6c41.8,0,83.5,0,125.3,0c7.8,0,9.7,2,9.7,9.7c0,12,0,23.9,0,35.9c0,5.3-2.5,8.4-6.7,8.4
		s-6.7-3.1-6.8-8.4c0-9.4-0.2-18.8,0.1-28.3c0.1-3.3-1-3.9-4-3.9c-78.5,0.1-156.9,0.1-235.4,0c-2.9,0-3.8,0.7-3.7,3.7
		c0.2,10.8,0.3,21.7,0,32.5c-0.1,4,1.3,4.5,4.8,4.4c27-0.1,54-0.1,81-0.1c2.3,0,4.5,0,6.4,1.6c2.1,1.8,3,4.1,2.2,6.8
		c-0.7,2.7-2.5,4.4-5.3,4.9c-1.2,0.2-2.5,0.2-3.8,0.2c-29.8,0-59.6,0-89.4,0c-7.2,0-9.3-2.1-9.3-9.3c0-16.4,0-32.9,0-49.3
		c0-6.6,2.2-8.8,8.9-8.8C151,167.6,193,167.6,235.1,167.6z"/>
	<path class="st0" d="M154.4,255.3c8.3,0,16.6,0,24.9,0c5.4,0,8.4,2.4,8.5,6.6c0.1,4.2-3.1,6.8-8.3,6.9c-17,0-34,0-51,0
		c-5,0-8-2.5-8.1-6.6c-0.1-4.2,3-6.8,8.3-6.8C137.3,255.3,145.8,255.3,154.4,255.3z"/>
	<path class="st0" d="M154.1,282.3c8.6,0,17.2,0,25.7,0c5,0,8,2.6,8,6.7s-3,6.7-8,6.7c-17.2,0-34.3,0-51.5,0c-5,0-8-2.6-8-6.7
		s3-6.7,8-6.7C136.9,282.3,145.5,282.3,154.1,282.3z"/>
	<path class="st0" d="M154.1,309.3c8.6,0,17.2,0,25.7,0c5,0,8,2.6,8,6.7s-3,6.7-8,6.7c-17.2,0-34.3,0-51.5,0c-5,0-8-2.6-8-6.7
		s3-6.7,8-6.7C136.9,309.3,145.5,309.3,154.1,309.3z"/>
	<path class="st0" d="M309.3,73.1c26.2,0,52.3,0,78.5,0c7.2,0,9.3,2.1,9.3,9.3c0,7.7,0,15.5,0,23.2c0,5.5-2.5,8-8,8
		c-53.1,0-106.3,0-159.4,0c-5.5,0-8-2.5-8-8c-0.1-8,0-16,0-24c0-6.1,2.4-8.4,8.4-8.4C256.5,73.1,282.9,73.1,309.3,73.1z
		 M308.9,100.1c21.9,0,43.8,0,65.8,0c8.9,0,8.8,0,9-8.9c0.1-3.6-0.7-4.7-4.5-4.7c-44.8,0.2-89.7,0.1-134.5,0.1c-9.6,0-9.4,0-9.7,9.6
		c-0.1,3.6,1.3,4,4.3,4C262.5,100.1,285.7,100.1,308.9,100.1z"/>
	<path class="st0" d="M113.6,93.9c-0.2,10.9-9.6,19.9-20.6,19.7c-11.2-0.2-20.2-9.6-19.9-20.8c0.3-11,9.5-19.8,20.6-19.7
		C104.9,73.3,113.8,82.6,113.6,93.9z M100.1,93.3c0-3.6-3.1-6.6-6.7-6.7c-3.8,0-6.9,3.2-6.8,7c0.2,3.6,3.3,6.5,6.9,6.4
		C97.1,100,100.1,96.9,100.1,93.3z"/>
	<path class="st0" d="M160.8,93.5c0,11-9.2,20.1-20.1,20.1c-11.2,0-20.4-9.2-20.3-20.4c0.1-11,9.1-20,20.1-20.1
		C151.7,73.1,160.8,82.2,160.8,93.5z M140.5,100.1c3.6,0,6.7-2.9,6.8-6.6c0.1-3.8-3.1-7-6.9-6.9c-3.6,0.1-6.6,3.1-6.6,6.8
		C133.9,97,136.9,100,140.5,100.1z"/>
	<path class="st0" d="M187.7,113.6c-11.2-0.1-20.3-9.3-20.1-20.5c0.1-11,9.3-20,20.3-19.9c11.2,0,20.2,9.3,20.1,20.5
		C208,104.6,198.7,113.7,187.7,113.6z M194.6,93.4c0-3.6-3-6.7-6.6-6.8c-3.8-0.1-7,3.1-6.9,6.9c0.1,3.6,3.2,6.6,6.8,6.5
		C191.5,100,194.5,97,194.6,93.4z"/>
	<path class="st0" d="M356.6,289.5c-0.3,37.5-30.7,67.3-68.5,67.1c-36.9-0.3-66.7-30.9-66.5-68.3c0.2-37.1,30.9-66.9,68.5-66.7
		C326.7,221.9,356.8,252.6,356.6,289.5z M235.1,289c-0.1,29.7,24.1,53.9,53.8,54.1c29.6,0.1,54.1-24.2,54.2-53.7
		c0-29.8-24-54.2-53.6-54.3C259.4,235,235.2,259.1,235.1,289z"/>
</g>
</svg>
