<?xml version="1.0" encoding="utf-8"?>
<!-- Generator: Adobe Illustrator 19.0.0, SVG Export Plug-In . SVG Version: 6.00 Build 0)  -->
<svg version="1.1" id="Layer_1" xmlns="http://www.w3.org/2000/svg" xmlns:xlink="http://www.w3.org/1999/xlink" x="0px" y="0px"
	 viewBox="0 0 500 500" style="enable-background:new 0 0 500 500;" xml:space="preserve">
<style type="text/css">
	.st0{fill:#F58333;}
</style>
<g id="XMLID_2_">
	<path id="XMLID_26_" d="M265,58.6c17.3,0.6,34.6,1.2,51.8,1.7c4.6,0.1,7.6,1.9,10.1,5.7c18.5,28.1,37.2,56.1,55.8,84.2
		c6,9,6.6,18.1,1.1,27.6c-4.4,7.6-8.6,15.2-12.7,22.9c-1.2,2.2-2.4,2.9-5,2.7c-65.3-5.2-119.4,47-116.1,112.4c1,21,8.1,40,20.6,56.9
		c2.1,2.8,2.1,4.7,0.4,7.5c-6.1,10.6-12.4,21.3-18,32.2c-15.1,29.5-50.5,38-77.2,23.9c-32-16.8-63.5-34.5-94.7-52.8
		c-25.2-14.8-36.9-48.6-20.1-78.3C105,227.7,148.1,149.8,191.4,72c5.7-10.3,13.7-15.1,25.6-14.8c16,0.4,32.1,0.1,48.1,0.1
		C265,57.7,265,58.2,265,58.6z M198.5,425.5c16.6,0,27.3-4.4,35.2-14.5c7.5-9.5,6-15.9-4.9-21c-46.4-21.6-91-46.3-133.8-74.4
		c-10.8-7.1-20.3-3.3-23.5,9c-4.6,17.8,4.1,36.2,22.4,46.5c28.7,16.2,57.5,32.1,86.3,48.2C186.9,423.2,194.3,425.6,198.5,425.5z
		 M261.3,134.6c0.1,14.3,11.8,25.6,26.1,25.4c14-0.2,25.3-11.9,25.1-25.9c-0.2-14.3-11.8-25.6-26.2-25.4
		C272.3,108.9,261.1,120.4,261.3,134.6z"/>
	<path id="XMLID_23_" class="st0" d="M446.7,309.8c0,49.5-40.5,89.9-89.9,89.8c-49.6-0.1-89.9-40.6-89.8-90.4
		c0.1-48.8,40.6-89.3,89.3-89.3C406.2,219.9,446.7,260.2,446.7,309.8z M369.8,330.9c0.1,5.9-3,9.1-7.7,10.8
		c-7.3,2.6-13.5-0.1-19.2-8.3c-3.2-4.6-7.8-5.9-12-3.3c-4.2,2.6-5.3,7.3-2.6,12.1c3.8,7,9.3,12.2,16.7,15.1c2.1,0.8,3.7,1.6,4.4,4.1
		c1.1,3.9,4.2,5.9,8,5.8c3.9,0,7-2.1,7.9-6c0.6-2.3,1.8-3.1,3.7-3.9c10.7-4.6,17.2-12.4,17.9-24.3c0.7-12.6-5.8-20.8-16.4-26.4
		c-6.5-3.4-13.4-5.8-20.2-8.3c-5-1.9-6.3-5.4-5.3-10.2c1-5.2,5.2-8.7,11-9.3c7.2-0.7,11.5,1.6,14.2,7.6c2.5,5.5,6.8,7.6,11.4,5.8
		c4.6-1.9,6.4-6.6,4.4-12.1c-3-8-8.5-13.5-16.5-16.4c-2.2-0.8-3.9-1.5-4.3-4.5c-0.6-4.1-3.7-6.5-7.9-6.5c-4.5-0.1-7.7,2.3-8.4,6.7
		c-0.5,3-2.1,4-4.5,5.1c-10.8,4.8-17.5,15.8-16.9,27.4c0.6,12,7.3,19.2,18.3,23c6.2,2.2,12.5,4.2,18.2,7.6
		C367.4,324.5,369.9,327.1,369.8,330.9z"/>
</g>
</svg>
