<?xml version="1.0" encoding="utf-8"?>
<!-- Generator: Adobe Illustrator 25.2.0, SVG Export Plug-In . SVG Version: 6.00 Build 0)  -->
<svg version="1.1" id="Layer_1" xmlns="http://www.w3.org/2000/svg" xmlns:xlink="http://www.w3.org/1999/xlink" x="0px" y="0px"
	 viewBox="0 0 500 500" style="enable-background:new 0 0 500 500;" xml:space="preserve">
<style type="text/css">
	.st0{fill:#EC7200;}
</style>
<path class="st0" d="M241.5,432.1c-11.4,0-22.8-2.8-33.9-8.4c-29.1-14.6-32.9-30-37-46.2c-3.1-12.3-6.3-25.1-20.6-40.2
	c-27.5-29.1-28.9-58.9-4-88.8c8.6-10.3-10.9-42.8-25.1-66.5c-8.5-14.2-16.5-27.6-19.3-36.5c-1.8-5.8-5.7-13.6-9.9-21.8
	c-9.6-19.2-19.6-39-11.9-49.5c4.1-5.6,12.4-7.4,25.4-5.3l0,0c2.9,0.5,6.6,0.6,10.9,0.7c15.3,0.4,38.4,1,63,21
	c4.1,3.4,8,6.7,11.7,9.8c23.5,20.1,40.6,34.6,87.1,31.4c26-1.8,40.8-9.1,55.1-16.2c16-7.9,31.1-15.4,59.4-15
	c17.6,0.3,25.4,2.2,28.7,7.2c3.5,5.2,0.9,11.9-2.7,21.2c-4.3,11.2-10.3,26.6-9.5,47.9c0.6,18.5,3.8,32.7,6.6,45.2
	c5.4,24,9.3,41.3-13.3,63.9c-17.5,17.6-19.9,40.5-21.7,57.3c-1.5,14.1-2.7,25.3-12.9,25.3c-7.1,0-13.2-5.6-19.1-11
	c-5.1-4.7-10.4-9.5-14.4-8.5c-2.6,0.7-6.6,4.2-11.2,17.3c-9.5,27.5-30.4,50.6-54.5,60.4C259.7,430.3,250.6,432.1,241.5,432.1z"/>
<path class="st0" d="M95.7,74.4c-4.5,0-8.7,0.9-10.6,3.5c-5.4,7.3,4.5,27,12.5,42.8c4.3,8.5,8.3,16.5,10.3,22.8
	c2.5,8.2,10.4,21.3,18.7,35.1c17.7,29.5,36,60.1,24.6,73.9c-22.8,27.4-21.6,53.7,3.7,80.4c15.4,16.3,19,30.5,22.2,43
	c4,16,7.2,28.7,33.7,42.1c18.2,9.2,37.5,10.1,55.6,2.8c22.5-9.1,42-30.8,50.9-56.5c4.5-13,9.5-19.8,15.6-21.4
	c7.3-1.9,13.9,4.1,20.2,9.9c5,4.6,10.2,9.3,14.8,9.3c4.3,0,5.3-7.1,6.6-19.6c1.9-17.7,4.4-42,23.5-61.1c20.1-20.2,16.9-34.4,11.6-58
	c-2.7-12.1-6.1-27.3-6.8-46.4c-0.8-22.6,5.7-39.3,9.9-50.4c2.8-7.2,5-12.9,3.3-15.3c-2.7-4.1-18.4-4.3-23.5-4.4
	c-26.8-0.4-41.2,6.8-56.5,14.3c-14.9,7.4-30.2,15-57.5,16.9c-49.1,3.4-67.9-12.6-91.6-32.9c-3.7-3.2-7.5-6.4-11.6-9.7
	c-22.9-18.7-43.8-19.2-59.1-19.6c-4.5-0.1-8.4-0.2-11.7-0.8c0,0,0,0,0,0C101.5,74.7,98.5,74.4,95.7,74.4z"/>
</svg>
