<?xml version="1.0" encoding="utf-8"?>
<!-- Generator: Adobe Illustrator 25.2.0, SVG Export Plug-In . SVG Version: 6.00 Build 0)  -->
<svg version="1.1" id="Layer_1" xmlns="http://www.w3.org/2000/svg" xmlns:xlink="http://www.w3.org/1999/xlink" x="0px" y="0px"
	 viewBox="0 0 500 500" style="enable-background:new 0 0 500 500;" xml:space="preserve">
<style type="text/css">
	.st0{fill:#FFFFFF;}
	.st1{fill:#EC7200;}
</style>
<g>
	<path class="st0" d="M477,314c-1,21-37.9,61.9-99.8,56.9s-71.9,49.9-98.8,46.9c-27-3-66.9-7-77.9-33.9c-11-27,14-25,0-30
		s-7,22-40.9,24s-38.9-13-87.8-17c-28.6-2.3-36.7-12.5-48.9-24.3V82h61.4c0,0,12,40.4,27,37.4s40.2-9,39.5,18
		c-0.6,26.9,12.8,20.9,29.3,46.4c16.5,25.4,25.4,27,53.9,13.5c28.4-13.5,13.5,10.5,35.2,18.7c21.7,8.3,44.1,1.5,77.1,10.5
		c32.9,9,41.2,23.2,35.2,33c-6,9.7-27.7,17.9,7.5,35.9s18.7,10.5,37.4,26.2C445.1,337.2,477,314,477,314z"/>
	<path class="st1" d="M280.6,420.5c-0.8,0-1.6,0-2.4-0.1l-1.3-0.1c-26.8-3-67.2-7.4-78.6-35.3c-7.1-17.4-0.1-24.2,3.2-27.5
		c0.1-0.1,0.2-0.2,0.2-0.2c-0.5-0.2-1.1-0.5-2-0.8c-3.8-1.3-4.9,0.1-8.1,5.3c-4.3,7-10.8,17.5-31.8,18.8c-17.8,1-28-2.5-39.9-6.6
		c-11.5-4-24.6-8.5-48.3-10.4c-27.2-2.2-36.7-11.5-47.7-22.3c-0.9-0.9-1.8-1.8-2.8-2.7c-0.5-0.5-0.8-1.1-0.8-1.8V82
		c0-1.4,1.1-2.5,2.5-2.5h61.4c1.1,0,2.1,0.7,2.4,1.8c4.4,14.8,14.8,37.5,24.1,35.7l1.5-0.3c10.8-2.2,25.6-5.2,34.4,2.2
		c4.6,3.9,6.9,10.2,6.7,18.6c-0.4,15.2,3.7,18.8,11.2,25.2c4.9,4.3,11.1,9.6,17.7,19.8c15.4,23.8,23,25.7,50.7,12.6
		c8.5-4,13.8-5.1,17.7-3.6c3.8,1.5,5.3,5,6.9,8.8c2,4.9,4.3,10.4,12.5,13.5c10.4,4,20.9,4.3,33.2,4.8c12.5,0.5,26.8,1,43.7,5.6
		c20.5,5.6,33.9,14,37.7,23.6c1.8,4.5,1.4,9-1.1,13.1c-1.4,2.2-3.4,4.3-5.4,6.3c-3.5,3.6-6.9,7-6.3,10.7c0.7,4.4,6.8,9.6,18.2,15.3
		c23.7,12.1,24.4,12.9,27.9,16.9c1.6,1.9,3.8,4.4,10,9.6c17,14.3,47.3-7.4,47.6-7.6c0.8-0.6,1.8-0.6,2.7-0.2
		c0.8,0.5,1.4,1.4,1.3,2.3c-0.5,10.3-8.5,23.5-20.8,34.3s-39.2,28.4-81.7,25c-36-2.9-53.8,15.1-68.2,29.5
		C299.5,412.3,291.4,420.5,280.6,420.5z"/>
	<path class="st1" d="M197.4,350.8c1.2,0,2.5,0.2,4,0.8c3.5,1.3,5.5,2.3,5.9,4.4c0.5,2.1-1,3.5-2.4,4.9c-3,2.9-7.9,7.8-2.1,22.1
		c10.2,25.1,47.4,29.3,74.5,32.3l1.3,0.1c9.6,1.1,17.1-6.5,26.6-16c15.1-15.2,33.9-34,72.1-30.9c40.6,3.3,66.3-13.5,78-23.8
		c9.1-8,15.7-17.4,18.1-25.4c-10.1,6-33.2,17.3-48.8,4.2c-6.5-5.4-8.8-8.1-10.5-10.1c-2.9-3.4-3.5-4.1-26.4-15.8
		c-13.2-6.7-19.8-12.8-20.8-19s3.6-10.9,7.7-15c1.9-1.9,3.6-3.7,4.7-5.4c1.6-2.7,1.9-5.6,0.7-8.6c-3.2-8-15.7-15.5-34.4-20.6
		c-16.4-4.5-30.3-5-42.6-5.4c-12.7-0.5-23.7-0.9-34.8-5.1c-10.2-3.8-13.2-11-15.3-16.2c-1.4-3.4-2.3-5.4-4.1-6
		c-2.4-0.9-7,0.3-13.8,3.5c-11.8,5.6-20.5,8.6-27.8,8.6c-11.2,0-19-7.2-29.2-23c-6.2-9.6-12.1-14.7-16.8-18.7
		c-7.7-6.7-13.3-11.5-12.9-29.1c0.2-6.9-1.5-11.8-4.9-14.7c-6.9-5.8-20.4-3.1-30.2-1.1l-1.5,0.3c-0.7,0.1-1.4,0.2-2.1,0.2
		c-14.3,0-24.6-29.2-27.2-37.6h-57v251.1c0.7,0.7,1.4,1.3,2,2c10.7,10.5,19.1,18.8,44.6,20.9c24.4,2,37.7,6.6,49.5,10.7
		s21.2,7.3,37.9,6.3c18.4-1.1,23.7-9.6,27.9-16.4C189.9,355,192.5,350.8,197.4,350.8z"/>
</g>
</svg>
