<?xml version="1.0" encoding="utf-8"?>
<!-- Generator: Adobe Illustrator 25.2.0, SVG Export Plug-In . SVG Version: 6.00 Build 0)  -->
<svg version="1.1" id="Layer_1" xmlns="http://www.w3.org/2000/svg" xmlns:xlink="http://www.w3.org/1999/xlink" x="0px" y="0px"
	 viewBox="0 0 500 500" style="enable-background:new 0 0 500 500;" xml:space="preserve">
<style type="text/css">
	.st0{fill:#EE6200;}
</style>
<g>
	<path class="st0" d="M396.5,259.2c-10.7,0-21.4,0-32.1,0c-9.6,0-12.7-3-12.7-12.8c-0.1-22.3-2.7-44.4-7.4-66.2
		c-0.7-3.2-1.8-4.4-5.3-4.4c-25.2,0.2-50.3,0.2-75.5,0c-3.5,0-4.3,1-4.3,4.4c0.2,18.7,0.2,37.3,0,56c0,3.7,1.1,4.7,4.7,4.5
		c4.9-0.3,9.8-0.1,14.7-0.1c7.4,0,11.5,3.4,11.5,9.4c-0.1,5.9-4.2,9.2-11.7,9.2c-5.2,0-10.4,0.1-15.6,0c-2.5-0.1-3.6,0.5-3.6,3.3
		c0.1,19.4,0.1,38.8,0,58.1c0,2.8,1.1,3.4,3.6,3.3c3.3-0.2,6.7-0.1,10,0c6.4,0.1,10.4,3.7,10.5,9.2c0.1,5.6-4,9.3-10.6,9.5
		c-3.5,0.1-6.9,0.1-10.4,0c-2.3-0.1-3,0.7-3,3c0.1,28.5,0.1,57,0,85.5c0,2.6,0.8,3.3,3.3,2.6c6.5-1.7,12.6-4.1,18.4-7.5
		c6.8-3.9,11.8-2.2,14.9,4.9c0.4,1,1.1,1.7,1.7,2.4c5.1,6.2,2.6,13.7-5.5,15.5c-15.7,3.6-31.7,5-47.8,4.5
		c-46-1.6-87.2-16.6-122.8-45.8c-40.5-33.3-65.3-76-72.9-128c-8.5-58.5,6-111.4,43-157.5c33.2-41.3,76.5-66.1,128.9-73.6
		c99.5-14.2,192.8,44.3,223.5,140c10.6,33.1,12.4,66.9,5.5,101c-1.3,6.2-5.5,9.7-10.8,8.8c-5.5-0.9-8.6-5.7-7.4-12.1
		c1.4-7.6,2.1-15.2,3-22.8c0.4-3.7-0.8-4.3-4.1-4.3C419.1,259.3,407.8,259.2,396.5,259.2z M194,240.6c14.2,0,28.3-0.1,42.5,0.1
		c3.1,0,4.2-0.7,4.2-4c-0.2-18.9-0.1-37.9,0-56.8c0-3-0.7-4-3.8-3.9c-25.6,0.1-51.2,0.1-76.8,0c-2.7,0-3.6,0.9-4.2,3.5
		c-4.3,19-6.4,38.2-7.4,57.5c-0.2,3.3,1.1,3.7,3.9,3.7C166.2,240.5,180.1,240.6,194,240.6z M194.3,259.2c-14,0-28.1,0.1-42.1-0.1
		c-2.9,0-4,0.6-3.9,3.8c1,19.2,3.2,38.3,7.3,57.1c0.7,3,1.8,3.9,4.8,3.9c25.3-0.1,50.6-0.1,75.9,0c3.1,0,4.2-0.6,4.2-4
		c-0.2-18.9-0.2-37.9,0-56.8c0-3.5-1.3-4-4.3-3.9C222.4,259.3,208.4,259.2,194.3,259.2z M240.6,111.9c0-14.2-0.1-28.3,0.1-42.5
		c0-3.3-0.9-3.8-4-3.1c-15.2,3.9-27.5,12.5-38,23.8c-17,18.4-27.6,40.3-35.7,63.8c-1.3,3.9,0.8,3.3,3,3.3c23.6,0,47.1-0.1,70.7,0.1
		c3.4,0,4-1.1,4-4.2C240.5,139.4,240.6,125.7,240.6,111.9z M259.3,111.4c0,14,0,28,0,42.1c0,2.6,0.3,3.9,3.4,3.9c24-0.1,48-0.1,72,0
		c2.7,0,3.1-0.6,2.3-3.2c-7.1-20.9-16.4-40.7-30.5-57.9c-11.4-13.9-24.8-24.9-42.7-29.6c-4-1.1-4.6,0.1-4.5,3.7
		C259.4,83.9,259.3,97.7,259.3,111.4z M240.6,388.5c0-14,0-28,0-42.1c0-2.4,0-4-3.3-4c-24,0.1-48,0.1-72,0c-2.4,0-3.4,0.2-2.4,3.1
		c7.1,21.1,16.5,41,30.8,58.3c11.4,13.9,24.9,24.9,42.8,29.4c3.3,0.8,4.3,0.3,4.2-3.2C240.5,416.3,240.6,402.4,240.6,388.5z
		 M97.5,240.6c9.4,0,18.8-0.1,28.2,0.1c3.4,0.1,4.4-1,4.5-4.4c0.4-18.9,2.7-37.7,6.7-56.2c0.7-3.2,0.2-4.3-3.4-4.2
		c-16.5,0.2-32.9,0.2-49.4,0c-3,0-4.2,1-5.3,3.7c-7.5,18.3-11.7,37.4-13.3,57.1c-0.3,3.6,0.8,4.1,3.9,4
		C78.8,240.5,88.2,240.6,97.5,240.6z M98.1,259.2c-9.8,0-19.6,0-29.5,0c-2.2,0-3.4,0.2-3.2,3.1c1.5,20.2,5.8,39.6,13.5,58.3
		c0.9,2.3,2,3.4,4.6,3.3c16.8-0.1,33.5-0.1,50.3,0c3,0,3.7-0.8,3.1-3.7c-4.1-18.8-6.4-37.8-6.8-57.1c-0.1-3.4-1.4-4-4.4-4
		C116.5,259.3,107.3,259.2,98.1,259.2z M402.5,240.6c9.5,0,19.1,0,28.6,0c1.9,0,3.6,0.3,3.4-2.8c-1.5-20.5-5.9-40.2-13.8-59.2
		c-0.8-1.8-1.7-2.7-3.8-2.7c-17.1,0.1-34.1,0.1-51.2,0c-2.4,0-3.4,0.5-2.9,3.2c4.2,19.1,6.6,38.4,7.1,58c0.1,2.9,1.2,3.6,3.9,3.6
		C383.4,240.5,392.9,240.6,402.5,240.6z M89.8,157.3c2.4,0,3.8,0,5.2,0c14.2,0,28.3-0.2,42.5,0.1c3.9,0.1,5.4-1.3,6.5-4.9
		c7.6-24.5,18.4-47.3,34.6-67.4c2-2.5,4.2-5,6.3-7.5C144,92.8,112.8,119.2,89.8,157.3z M184.9,422.1c-2.1-2.5-4.3-5-6.3-7.5
		c-16.3-20.2-27.1-43.2-34.7-67.8c-1-3.4-2.5-4.4-6-4.4c-14.4,0.2-28.9,0.1-43.3,0.1c-1.3,0-2.8-0.6-4.1,0.9
		C112.8,380.6,144.1,407,184.9,422.1z M409.5,157.2c-14.4-30.9-71.2-78.6-94.5-79.5c7,7.8,13.2,15.9,18.5,24.7
		c9.9,16.1,17.2,33.3,22.8,51.3c0.5,1.7,0.6,3.7,3.4,3.6C376.2,157.2,392.6,157.2,409.5,157.2z"/>
	<path class="st0" d="M403.5,449.8c-10-0.1-17.8-4.3-23.5-12.4c-6.4-9.1-12.8-18.2-19.1-27.4c-1.6-2.4-2.6-2.7-4.7-0.3
		c-4.3,5.1-8.9,9.9-13.4,14.8c-5.6,6.1-12.4,8.5-20.4,5.7c-7.9-2.8-11.8-8.8-12.6-17c-4.2-43.1-8.5-86.3-12.8-129.4
		c-0.7-7.3,1.4-13.5,7.4-17.9c6.1-4.5,12.8-4.8,19.6-1.5c39.3,18.9,78.6,37.7,117.9,56.6c7.5,3.6,11.7,9.4,11.5,17.8
		c-0.2,8.4-4.9,13.9-12.5,17.1c-6.3,2.6-12.5,5.3-18.8,7.7c-2.4,0.9-2.4,1.8-1,3.7c6.4,8.9,12.7,17.9,18.9,27
		c10.3,14.8,7.4,30.8-7.2,41.2c-4.6,3.3-9.2,6.5-13.9,9.7C414.3,448.1,409.1,449.9,403.5,449.8z M315.4,280.6
		c4.4,44.3,8.7,87.7,13,132.1c8.1-8.8,15.4-16.8,22.7-24.8c6.4-7,12.2-6.6,17.7,1.2c8.6,12.3,17.2,24.6,25.9,36.9
		c4.3,6,9,6.8,15.2,2.6c3.9-2.7,7.8-5.4,11.7-8.2c7.1-5,7.8-9.3,2.9-16.4c-8.3-11.8-16.6-23.7-24.9-35.5c-6.2-8.9-4.7-14,5.2-18
		c9.9-4,19.7-8.1,30.3-12.5C395,318.8,355.7,300,315.4,280.6z"/>
</g>
</svg>
