<?xml version="1.0" encoding="utf-8"?>
<!-- Generator: Adobe Illustrator 25.2.0, SVG Export Plug-In . SVG Version: 6.00 Build 0)  -->
<svg version="1.1" id="Layer_1" xmlns="http://www.w3.org/2000/svg" xmlns:xlink="http://www.w3.org/1999/xlink" x="0px" y="0px"
	 viewBox="0 0 500 500" style="enable-background:new 0 0 500 500;" xml:space="preserve">
<style type="text/css">
	.st0{fill:#EC7200;}
</style>
<path class="st0" d="M209.6,482.6c-13.3,0-19.3-0.3-24.6-0.7c-2.3-0.1-4.5-0.3-7.2-0.3c-10.3-0.4-14.2-9.2-14.3-9.6
	c0-0.1-0.1-0.2-0.1-0.2c-0.1-0.3-2.6-8.6,1-14.7c1.7-2.9,4.4-4.8,8-5.7c1.5-0.4,2.1-1,2.4-1.5c1.5-2.7-0.4-8.9-2-13.9
	c-1.5-4.7-2.8-8.8-2.2-11.9c0.5-2.8,0-3.6-2.9-6.9c-2.3-2.7-5.4-6.3-9.2-13c-1.5-2.6-2.8-4.9-4-6.9c-5.7-9.5-8.8-14.8-9.1-29
	c-0.2-9.9-7.3-17.3-13.7-23.8c-3.5-3.6-6.7-6.9-8.6-10.5c-0.9-1.7-2-3.6-3.2-5.7c-5.8-10-13.1-22.3-7.3-29.4
	c2.5-3.1,0.7-8.2-2.3-16.2c-1.9-5-4.1-10.7-5.3-17.1c-1.5-8.2-0.7-10.5,0.7-13.3c1-1.9,2.2-4.2,1.6-14.3
	c-0.9-14.5-1.3-20.5,2.1-23.3c2.4-2,5.8-1.4,9.4-0.5c5.2,1.3,5.7,0.7,10.2-4.6c2.2-2.5,5.1-6,9.7-10.3c2.3-2.2,4.3-4.2,6.2-6.2
	c10-10,16.7-16.7,31-16.1c7.6,0.3,10.3-1.9,14-4.9c3.5-2.8,7.8-6.3,16.6-8.5c17.8-4.4,25.9-6.4,35.9-23.1c2.8-4.7,4.6-8.1,5.9-10.5
	c3.8-7.1,4.3-7.8,11.8-10.7c2.5-1,2.6-1.9,2.1-6.3c-0.5-4.5-1.2-10.7,5.2-16.8c7.1-6.9,10.9-7,15.2-7.1c2.4-0.1,5.2-0.1,9.3-1.6
	c4-1.4,4-1.6,3.4-4.5c-0.7-3.5-1.6-8.7,2.9-17.2c2.8-5.3,3.8-9.2,4.5-12c1.6-6.6,3.2-9,14-10.2c6.9-0.8,8.6-4.9,10.6-9.7
	c1.8-4.5,3.9-9.5,10.5-10.5c3.8-0.6,5.4-1.9,6.9-3.3c3.7-3.3,6.7-4,15.2,0.6c2.5,1.3,4.9,2.5,7,3.6c9.9,5,17.1,8.7,14.4,16.2
	c-0.8,2.2-0.5,3.4,0,3.8c0.5,0.4,1.6,0.3,2.8-0.6c0,0,0.1-0.1,0.1-0.1c1-0.6,1.8-1.4,2.6-2.1c1.8-1.6,3.8-3.4,7-3.5
	c0.7,0,1.3,0.2,1.8,0.7c0.5,0.5,0.8,1.1,0.8,1.8v357.9c0,1.1-0.7,2-1.7,2.4c-5.9,2-10.9,4.8-14.9,8.3c-9.5,8.4-13.2,8.6-18.9,8.2
	c-3-0.2-6.5-0.5-12.8,1.4c-2.6,0.8-4.9,1.4-7,2c-11.6,3.1-15,4-16.8,15.9c-2.2,14.5-14.5,20.7-36.4,18.3c-2.9-0.3-6-0.8-8.9-1.2
	c-13.3-2-27-4.1-34.4,5c-1.8,2.2-3.3,4.3-4.8,6.3C232.4,474.5,226.4,482.6,209.6,482.6z"/>
<path class="st0" d="M168.2,470.1c0.4,0.9,3.2,6.2,9.8,6.5c2.7,0.1,4.9,0.2,7.3,0.4c5.3,0.3,11.2,0.6,24.3,0.6
	c14.3,0,18.9-6.2,25.8-15.5c1.5-2.1,3.1-4.2,5-6.5c9.2-11.3,25-8.9,39-6.8c3.1,0.5,5.9,0.9,8.7,1.2c19.4,2.1,29.2-2.4,31-14.1
	c2.3-15.1,8.7-16.8,20.5-20c2-0.5,4.4-1.2,6.9-1.9c7.1-2.2,11.2-1.9,14.5-1.6c4.4,0.3,6.8,0.5,15.2-7c4.1-3.6,9.1-6.6,15-8.7V44.2
	c-0.4,0.3-0.8,0.7-1.3,1.1c-0.9,0.8-1.9,1.7-3.1,2.5c-2.8,2.1-6.3,2.3-8.7,0.5c-2.6-1.9-3.2-5.5-1.8-9.5c1.1-3.1-2-5-12-10.1
	c-2.1-1.1-4.5-2.3-7.1-3.7c-6.8-3.6-7.6-2.9-9.5-1.2c-1.8,1.6-4.2,3.7-9.5,4.5c-3.7,0.5-4.8,3.1-6.7,7.5
	c-2.1,5.2-4.8,11.7-14.6,12.8c-8.3,0.9-8.4,1.5-9.7,6.4c-0.8,3.1-1.8,7.3-4.9,13.1c-3.7,6.9-2.9,11-2.4,14c0.8,4.3,0.8,7.5-6.7,10.1
	c-4.9,1.7-8.2,1.8-10.8,1.8c-3.8,0.1-6.1,0.1-11.8,5.7c-4.6,4.4-4.1,8.6-3.7,12.7c0.5,4,1,9-5.3,11.5c-6,2.4-6,2.4-9.2,8.4
	c-1.3,2.5-3.2,5.9-6,10.7c-11.1,18.5-21,20.9-38.9,25.3c-7.7,1.9-11.2,4.8-14.6,7.5c-4.1,3.3-8,6.5-17.4,6.1
	c-12.1-0.5-17.5,4.9-27.2,14.7c-2,2-4,4-6.3,6.2c-4.4,4.2-7.2,7.5-9.3,10c-4.8,5.6-7,8.2-15.2,6.2c-3.6-0.9-4.7-0.8-5-0.5
	c-1.4,1.2-0.9,9.5-0.3,19.1c0.7,11.5-0.9,14.5-2.2,17c-0.9,1.7-1.6,2.9-0.2,10c1.1,5.9,3.2,11.4,5,16.2c3.2,8.4,6,15.7,1.6,21.2
	c-3.6,4.4,3.2,16,7.7,23.7c1.2,2.1,2.4,4.1,3.3,5.8c1.6,2.9,4.6,6,7.8,9.3c6.6,6.8,14.9,15.3,15.1,27.2c0.2,12.9,2.8,17.2,8.4,26.5
	c1.2,2,2.6,4.3,4.1,7c3.5,6.3,6.5,9.7,8.6,12.2c2.9,3.4,5.1,5.9,4,11.1c-0.3,1.8,1,5.9,2.1,9.5c2.1,6.5,4.2,13.3,1.6,17.9
	c-1.1,2-3,3.3-5.6,3.9c-2.2,0.5-3.8,1.6-4.8,3.3C166.5,463.4,167.9,469.2,168.2,470.1z"/>
</svg>
